<?xml version="1.0" encoding="UTF-8" standalone="no"?>
<!-- Created with Inkscape (http://www.inkscape.org/) -->

<svg
   xmlns:dc="http://purl.org/dc/elements/1.1/"
   xmlns:cc="http://creativecommons.org/ns#"
   xmlns:rdf="http://www.w3.org/1999/02/22-rdf-syntax-ns#"
   xmlns:svg="http://www.w3.org/2000/svg"
   xmlns="http://www.w3.org/2000/svg"
   xmlns:sodipodi="http://sodipodi.sourceforge.net/DTD/sodipodi-0.dtd"
   xmlns:inkscape="http://www.inkscape.org/namespaces/inkscape"
   width="220mm"
   height="175mm"
   viewBox="0 0 220 175"
   version="1.1"
   id="svg912"
   inkscape:version="0.92.4 (unknown)"
   sodipodi:docname="2014_Interlagos_circuit_map.svg">
  <defs
     id="defs906" />
  <sodipodi:namedview
     id="base"
     pagecolor="#ffffff"
     bordercolor="#666666"
     borderopacity="1.0"
     inkscape:pageopacity="0.0"
     inkscape:pageshadow="2"
     inkscape:zoom="0.35"
     inkscape:cx="-10"
     inkscape:cy="560"
     inkscape:document-units="mm"
     inkscape:current-layer="layer1"
     showgrid="false"
     inkscape:window-width="1366"
     inkscape:window-height="719"
     inkscape:window-x="0"
     inkscape:window-y="0"
     inkscape:window-maximized="1" />
  <metadata
     id="metadata909">
    <rdf:RDF>
      <cc:Work
         rdf:about="">
        <dc:format>image/svg+xml</dc:format>
        <dc:type
           rdf:resource="http://purl.org/dc/dcmitype/StillImage" />
        <dc:title></dc:title>
      </cc:Work>
    </rdf:RDF>
  </metadata>
  <g
     inkscape:label="Capa 1"
     inkscape:groupmode="layer"
     id="layer1"
     transform="translate(0,-122)">
    <path
       style="display:inline;fill:none;stroke:#797979;stroke-width:0.84362811;stroke-linecap:butt;stroke-linejoin:miter;stroke-miterlimit:4;stroke-dasharray:none;stroke-opacity:1"
       d="m 74.196283,267.92657 c 5.373134,1.39208 11.977071,3.21305 19.201393,2.13965 l 13.893954,-2.06439 c 4.10968,-0.61063 6.43998,1.19029 10.63801,0.38883 l 39.19131,-7.55837 44.22306,-9.00704 c 2.59938,-0.52943 4.04557,-2.49832 4.27971,-3.4691 0.40806,-1.69198 0.0847,-2.71071 -0.75693,-4.31846 l -6.98369,-13.33957 c -1.32317,-2.52741 -0.6382,-5.99319 1.01266,-8.91443 2.23752,-3.95937 5.35741,-7.36702 6.21689,-11.57929 1.10357,-5.40877 1.07676,-9.32455 -1.33394,-14.88498 -1.41693,-3.26821 -4.03166,-6.13227 -7.03828,-8.05902 -12.34835,-7.91325 -36.49475,-15.67609 -36.49475,-15.67609"
       id="path5100"
       inkscape:connector-curvature="0"
       sodipodi:nodetypes="cssscssssssssc" />
    <path
       style="display:inline;fill:none;stroke-width:0.21090703"
       d="m 56.83724,263.38805 c 5.235144,1.03328 15.738364,3.68339 20.259292,4.95236 4.590793,1.28858 9.047689,2.82879 13.761757,3.0511 4.714067,0.22232 9.780991,0.1692 14.472271,-0.6553 11.06294,-1.94441 22.08196,-4.87111 33.04449,-7.37342 22.28114,-5.08594 44.71042,-9.9902 66.70854,-15.85591 2.18309,-0.5821 3.47519,-1.02511 4.78788,-2.5392 0.61998,-0.71512 0.46256,-2.28685 -0.0371,-3.20009 -2.28268,-4.17226 -5.12586,-7.26247 -7.13195,-11.53526 -0.85441,-1.81979 -0.90451,-4.35471 -0.27157,-6.22132 0.83212,-2.45417 3.85278,-5.65413 4.93284,-8.12532 1.60547,-3.67341 2.16641,-7.77878 2.52324,-11.73365 0.30796,-3.41385 -0.35766,-7.46944 -1.79231,-10.49861 -1.54262,-3.25706 -4.68194,-5.88937 -7.61568,-8.18298 -3.38327,-2.64502 -7.50207,-4.21233 -11.50337,-5.90914 -7.97855,-3.38346 -17.12487,-6.40184 -25.38214,-9.1102 -8.49059,-2.78491 -16.81227,-4.98599 -24.18572,-7.49585"
       id="path2842"
       sodipodi:nodetypes="cssssssssssssssss"
       inkscape:connector-curvature="0"
       inkscape:highlight-color="177" />
    <path
       style="display:inline;fill:none;stroke:#000000;stroke-width:2.5308845;stroke-linecap:butt;stroke-linejoin:miter;stroke-miterlimit:4;stroke-dasharray:none;stroke-opacity:1"
       d="m 108.79689,272.24479 85.85814,-16.14699 c 4.71319,-0.88638 8.37997,-1.88045 11.98606,-4.06373 1.43712,-0.87009 2.86218,-1.99349 3.64168,-3.47735 0.79839,-1.51981 1.12307,-3.39502 0.81056,-5.08178 -0.24211,-1.30685 -1.25374,-2.75057 -1.99765,-3.45537 -2.59729,-2.46075 -3.42695,-3.57649 -5.29951,-5.71349 -0.78743,-0.89861 -1.32412,-2.15666 -1.44103,-3.37281 -0.16539,-1.72043 0.48463,-3.38348 1.31877,-4.83082 2.64621,-4.59161 4.85978,-6.95857 6.00354,-10.96153 0.93759,-3.28129 0.86161,-6.82021 0.56612,-10.21909 -0.224,-2.57642 -0.80141,-5.15415 -1.75971,-7.55786 -1.07736,-2.70229 -2.41112,-5.41808 -4.4131,-7.53487 -3.57734,-3.78245 -7.49177,-6.0683 -13.0255,-8.64635 -2.04406,-0.95227 -4.39437,-1.79459 -6.32209,-2.41174 L 81.868353,145.84199 c -3.813641,-1.22092 -11.067426,-0.30802 -13.065133,5.28665 -0.157938,0.44245 -0.683456,1.88389 -1.025824,3.29975 l -2.410868,9.97051 c -0.50325,2.08126 -1.156411,4.74006 -1.169408,6.40406 -0.01651,2.18239 0.104934,3.52338 0.61604,5.79775 0.538205,2.39496 1.053701,3.4603 2.180786,5.49644 1.141738,2.06256 3.12003,4.99803 5.358255,6.67806 0,0 27.731439,22.54958 46.489909,37.5942 1.62074,1.29987 4.185,3.84325 5.25991,5.93433 2.46424,4.79385 2.30715,15.68102 -3.4245,21.99903 -2.60887,2.87577 -7.33893,4.5541 -9.67075,5.00408 -6.43717,1.2422 -11.340244,2.0028 -13.418154,2.14303 -2.33216,0.15739 -6.979136,0.16298 -9.212151,-0.52526 -1.410203,-0.43464 -2.698189,-1.35317 -3.48892,-2.59422 -0.730681,-1.14682 -0.9862,-3.7833 0.206941,-5.58954 2.37693,-3.59809 3.144719,-3.68306 4.921049,-6.09399 1.190781,-1.61614 1.410706,-3.92802 1.111972,-5.91025 -0.247607,-1.6429 -1.192294,-3.19391 -2.325065,-4.41392 -0.895035,-0.96397 -2.08306,-1.7273 -3.34821,-2.0971 -1.528686,-0.44684 -3.234248,-0.43231 -4.779298,-0.0457 -1.562809,0.39114 -3.560376,1.69176 -4.237466,2.31656 -3.7093,3.42292 -4.939739,4.51274 -8.145738,7.26369 -3.224369,2.76669 -9.413393,5.66709 -13.454637,6.178 l -7.386542,0.93384 c -2.295676,0.29024 -3.289017,0.0884 -4.261178,-0.21528 -0.883542,-0.276 -1.714677,-0.88654 -2.22532,-1.65559 -0.549987,-0.82834 -0.894668,-1.91852 -0.708734,-2.89397 0.291936,-1.53146 1.372261,-2.79863 2.707264,-3.8214 l 12.088193,-9.26107 c 3.106108,-2.37965 5.452801,-5.03659 6.640597,-8.43356 2.862551,-8.18666 -0.27347,-18.0709 -8.097824,-23.45101 L 29.023305,184.24543 c -1.622684,-1.11578 -3.591296,-1.68322 -5.363142,-1.03002 -1.446797,0.53338 -2.807198,2.07353 -3.370656,3.19844 0,0 -2.116996,4.12707 -2.959502,6.01403 -1.412519,3.16363 -2.622403,5.90504 -3.846791,9.29443 -0.546748,1.51353 -0.758919,3.14132 -0.879095,4.74535 -0.127625,1.70432 -0.02383,3.42647 0.172398,5.12438 0.484416,4.19213 0.943717,8.36567 1.935598,12.44604 0.707722,2.91144 1.885617,5.73411 2.850401,8.52679 0.914266,2.64642 2.061173,5.21282 3.279401,7.73498 0.968814,2.00578 1.570781,3.18098 2.782518,5.05134 1.537276,2.37288 3.836771,5.12576 5.956435,7.00189 2.788778,2.46836 7.774364,5.40631 11.349205,6.47153 15.26163,4.54766 29.581776,8.72836 35.694326,10.40193 4.843545,1.32615 11.080766,3.11311 16.048895,3.64066 4.82339,0.51218 9.810224,0.56492 16.123554,-0.6224 z"
       id="path5074"
       inkscape:connector-curvature="0"
       sodipodi:nodetypes="sssssssssssssssssssssssssssssssssssssssssssssssssssssssssssssss" />
    <path
       sodipodi:type="star"
       style="display:inline;fill:#ff0000;fill-opacity:1;stroke:#ffffff;stroke-width:0.867217;stroke-linecap:round;stroke-linejoin:miter;stroke-miterlimit:4;stroke-dasharray:none;stroke-dashoffset:0;stroke-opacity:1"
       id="path3463"
       sodipodi:sides="3"
       sodipodi:cx="1683.6964"
       sodipodi:cy="1391.4535"
       sodipodi:r1="14.134234"
       sodipodi:r2="7.0671172"
       sodipodi:arg1="0.52359878"
       sodipodi:arg2="1.5707963"
       inkscape:flatsided="true"
       inkscape:rounded="0"
       inkscape:randomized="0"
       d="m 1695.937,1398.5206 -24.4812,0 12.2406,-21.2013 z"
       transform="matrix(-0.03269965,-0.14337999,-0.43651781,0.09861843,805.99048,377.62325)"
       clip-path="none" />
    <g
       style="display:inline"
       transform="matrix(-0.18304577,0.22532135,-0.22635539,-0.18225026,276.47581,175.51599)"
       id="g4557">
      <rect
         width="3.6360872"
         height="3.794178"
         x="503.13138"
         y="-225.66817"
         transform="matrix(0.765001,0.644028,-0.644028,0.765001,0,0)"
         id="rect4559"
         style="fill:#000000;fill-opacity:1;fill-rule:nonzero;stroke:none" />
      <rect
         width="3.6360872"
         height="3.794178"
         x="503.13843"
         y="-210.80884"
         transform="matrix(0.765001,0.644028,-0.644028,0.765001,0,0)"
         id="rect4561"
         style="fill:#000000;fill-opacity:1;fill-rule:nonzero;stroke:none" />
      <rect
         width="3.6360872"
         height="3.794178"
         x="503.22794"
         y="-233.16934"
         transform="matrix(0.765001,0.644028,-0.644028,0.765001,0,0)"
         id="rect4563"
         style="fill:#000000;fill-opacity:1;fill-rule:nonzero;stroke:none" />
      <rect
         width="3.6360872"
         height="3.794178"
         x="503.10162"
         y="-221.97508"
         transform="matrix(0.765001,0.644028,-0.644028,0.765001,0,0)"
         id="rect4565"
         style="fill:#ffffff;fill-opacity:1;fill-rule:nonzero;stroke:none" />
      <rect
         width="3.6360872"
         height="3.794178"
         x="503.14481"
         y="-229.39552"
         transform="matrix(0.765001,0.644028,-0.644028,0.765001,0,0)"
         id="rect4567"
         style="fill:#ffffff;fill-opacity:1;fill-rule:nonzero;stroke:none" />
      <rect
         width="3.6360872"
         height="3.794178"
         x="503.1427"
         y="-214.46121"
         transform="matrix(0.765001,0.644028,-0.644028,0.765001,0,0)"
         id="rect4569"
         style="fill:#ffffff;fill-opacity:1;fill-rule:nonzero;stroke:none" />
      <rect
         width="3.6360872"
         height="3.794178"
         x="503.14166"
         y="-206.99403"
         transform="matrix(0.765001,0.644028,-0.644028,0.765001,0,0)"
         id="rect4571"
         style="fill:#ffffff;fill-opacity:1;fill-rule:nonzero;stroke:none" />
      <rect
         width="3.6360872"
         height="3.794178"
         x="506.87115"
         y="-233.22285"
         transform="matrix(0.765001,0.644028,-0.644028,0.765001,0,0)"
         id="rect4573"
         style="fill:#ffffff;fill-opacity:1;fill-rule:nonzero;stroke:none" />
      <rect
         width="3.6360872"
         height="3.794178"
         x="503.1145"
         y="-203.19873"
         transform="matrix(0.765001,0.644028,-0.644028,0.765001,0,0)"
         id="rect4575"
         style="fill:#000000;fill-opacity:1;fill-rule:nonzero;stroke:none" />
      <rect
         width="3.6360872"
         height="3.794178"
         x="503.12387"
         y="-218.21779"
         transform="matrix(0.765001,0.644028,-0.644028,0.765001,0,0)"
         id="rect4577"
         style="fill:#000000;fill-opacity:1;fill-rule:nonzero;stroke:none" />
      <rect
         width="3.6360872"
         height="3.794178"
         x="506.6814"
         y="-221.93484"
         transform="matrix(0.765001,0.644028,-0.644028,0.765001,0,0)"
         id="rect4579"
         style="fill:#000000;fill-opacity:1;fill-rule:nonzero;stroke:none" />
      <rect
         width="3.6360872"
         height="3.794178"
         x="506.68845"
         y="-207.07552"
         transform="matrix(0.765001,0.644028,-0.644028,0.765001,0,0)"
         id="rect4581"
         style="fill:#000000;fill-opacity:1;fill-rule:nonzero;stroke:none" />
      <rect
         width="3.6360872"
         height="3.794178"
         x="506.77795"
         y="-229.43602"
         transform="matrix(0.765001,0.644028,-0.644028,0.765001,0,0)"
         id="rect4583"
         style="fill:#000000;fill-opacity:1;fill-rule:nonzero;stroke:none" />
      <rect
         width="3.6360872"
         height="3.794178"
         x="506.65164"
         y="-218.24176"
         transform="matrix(0.765001,0.644028,-0.644028,0.765001,0,0)"
         id="rect4585"
         style="fill:#ffffff;fill-opacity:1;fill-rule:nonzero;stroke:none" />
      <rect
         width="3.6360872"
         height="3.794178"
         x="506.69482"
         y="-225.6622"
         transform="matrix(0.765001,0.644028,-0.644028,0.765001,0,0)"
         id="rect4587"
         style="fill:#ffffff;fill-opacity:1;fill-rule:nonzero;stroke:none" />
      <rect
         width="3.6360872"
         height="3.794178"
         x="506.69272"
         y="-210.72789"
         transform="matrix(0.765001,0.644028,-0.644028,0.765001,0,0)"
         id="rect4589"
         style="fill:#ffffff;fill-opacity:1;fill-rule:nonzero;stroke:none" />
      <rect
         width="3.6360872"
         height="3.794178"
         x="506.69168"
         y="-203.26071"
         transform="matrix(0.765001,0.644028,-0.644028,0.765001,0,0)"
         id="rect4591"
         style="fill:#ffffff;fill-opacity:1;fill-rule:nonzero;stroke:none" />
      <rect
         width="3.6360872"
         height="3.794178"
         x="506.67389"
         y="-214.48447"
         transform="matrix(0.765001,0.644028,-0.644028,0.765001,0,0)"
         id="rect4593"
         style="fill:#000000;fill-opacity:1;fill-rule:nonzero;stroke:none" />
      <rect
         width="3.6360872"
         height="3.794178"
         x="510.23587"
         y="-225.71014"
         transform="matrix(0.765001,0.644028,-0.644028,0.765001,0,0)"
         id="rect4595"
         style="fill:#000000;fill-opacity:1;fill-rule:nonzero;stroke:none" />
      <rect
         width="3.6360872"
         height="3.794178"
         x="510.24292"
         y="-210.85081"
         transform="matrix(0.765001,0.644028,-0.644028,0.765001,0,0)"
         id="rect4597"
         style="fill:#000000;fill-opacity:1;fill-rule:nonzero;stroke:none" />
      <rect
         width="3.6360872"
         height="3.794178"
         x="510.33243"
         y="-233.21132"
         transform="matrix(0.765001,0.644028,-0.644028,0.765001,0,0)"
         id="rect4599"
         style="fill:#000000;fill-opacity:1;fill-rule:nonzero;stroke:none" />
      <rect
         width="3.6360872"
         height="3.794178"
         x="510.20612"
         y="-222.01706"
         transform="matrix(0.765001,0.644028,-0.644028,0.765001,0,0)"
         id="rect4601"
         style="fill:#ffffff;fill-opacity:1;fill-rule:nonzero;stroke:none" />
      <rect
         width="3.6360872"
         height="3.794178"
         x="510.2493"
         y="-229.4375"
         transform="matrix(0.765001,0.644028,-0.644028,0.765001,0,0)"
         id="rect4603"
         style="fill:#ffffff;fill-opacity:1;fill-rule:nonzero;stroke:none" />
      <rect
         width="3.6360872"
         height="3.794178"
         x="510.24719"
         y="-214.50319"
         transform="matrix(0.765001,0.644028,-0.644028,0.765001,0,0)"
         id="rect4605"
         style="fill:#ffffff;fill-opacity:1;fill-rule:nonzero;stroke:none" />
      <rect
         width="3.6360872"
         height="3.794178"
         x="510.24615"
         y="-207.03601"
         transform="matrix(0.765001,0.644028,-0.644028,0.765001,0,0)"
         id="rect4607"
         style="fill:#ffffff;fill-opacity:1;fill-rule:nonzero;stroke:none" />
      <rect
         width="3.6360872"
         height="3.794178"
         x="510.22836"
         y="-218.25977"
         transform="matrix(0.765001,0.644028,-0.644028,0.765001,0,0)"
         id="rect4609"
         style="fill:#000000;fill-opacity:1;fill-rule:nonzero;stroke:none" />
      <rect
         width="3.6360872"
         height="3.794178"
         x="510.32791"
         y="-203.24594"
         transform="matrix(0.765001,0.644028,-0.644028,0.765001,0,0)"
         id="rect4611"
         style="fill:#000000;fill-opacity:1;fill-rule:nonzero;stroke:none" />
    </g>
  </g>
</svg>
