<?xml version="1.0" encoding="UTF-8" standalone="no"?>
<svg
   xmlns:dc="http://purl.org/dc/elements/1.1/"
   xmlns:cc="http://creativecommons.org/ns#"
   xmlns:rdf="http://www.w3.org/1999/02/22-rdf-syntax-ns#"
   xmlns:svg="http://www.w3.org/2000/svg"
   xmlns="http://www.w3.org/2000/svg"
   xmlns:sodipodi="http://sodipodi.sourceforge.net/DTD/sodipodi-0.dtd"
   xmlns:inkscape="http://www.inkscape.org/namespaces/inkscape"
   clip-rule="evenodd"
   stroke-miterlimit="10"
   viewBox="0 0 538.58 425.20"
   version="1.1"
   id="svg170"
   sodipodi:docname="Autódromo_Hermanos_Rodríguez_2015.svg"
   inkscape:version="0.92.4 (unknown)">
  <metadata
     id="metadata174">
    <rdf:RDF>
      <cc:Work
         rdf:about="">
        <dc:format>image/svg+xml</dc:format>
        <dc:type
           rdf:resource="http://purl.org/dc/dcmitype/StillImage" />
      </cc:Work>
    </rdf:RDF>
  </metadata>
  <sodipodi:namedview
     pagecolor="#ffffff"
     bordercolor="#666666"
     borderopacity="1"
     objecttolerance="10"
     gridtolerance="10"
     guidetolerance="10"
     inkscape:pageopacity="0"
     inkscape:pageshadow="2"
     inkscape:window-width="1366"
     inkscape:window-height="719"
     id="namedview172"
     showgrid="false"
     inkscape:zoom="3.1397403"
     inkscape:cx="179.67371"
     inkscape:cy="338.21326"
     inkscape:window-x="0"
     inkscape:window-y="0"
     inkscape:window-maximized="1"
     inkscape:current-layer="g168" />
  <desc
     id="desc2">SVG generated by Lineform</desc>
  <defs
     id="defs4" />
  <g
     id="g168">
    <path
       d="M 183.64 61.90 C 289.76 78.26 346.39 83.90 381.75 89.64 C 405.33 93.47 447.05 100.24 457.82 102.99 C 467.64 105.50 467.84 105.24 466.89 112.57 C 466.08 118.72 465.59 121.60 464.53 127.79 C 464.05 130.63 466.30 131.85 470.13 135.52 C 472.43 137.73 474.55 139.25 474.16 141.25 C 470.27 161.23 468.21 164.27 463.25 174.94 C 460.92 179.97 458.73 182.51 456.04 187.35 C 439.70 213.60 423.35 239.85 407.00 266.10 C 398.34 280.01 388.34 293.12 378.89 306.42 C 377.94 307.75 376.69 309.52 376.86 311.15 C 377.15 313.83 386.36 318.16 389.07 319.91 C 391.80 321.68 392.57 322.81 392.20 325.66 C 391.94 327.72 389.57 329.03 387.97 330.15 C 380.15 335.62 372.64 340.77 364.83 346.23 C 363.77 346.97 362.43 347.44 361.23 346.96 C 359.92 346.44 358.16 345.14 356.63 344.24 C 355.07 343.31 355.31 341.56 355.57 339.76 C 359.51 312.78 363.50 284.92 367.43 257.95 C 367.91 254.70 366.49 251.22 363.70 249.48 C 358.46 246.24 354.87 243.69 349.76 240.57 C 344.57 237.40 340.65 229.82 338.81 224.02 C 336.55 216.87 330.70 209.97 323.55 208.59 C 312.72 206.49 301.89 204.86 291.07 202.94 C 284.72 201.81 278.42 199.05 275.60 191.32 C 273.94 186.80 272.70 182.69 271.13 178.13 C 269.98 174.81 266.17 172.75 263.08 171.07 C 252.91 165.52 242.32 159.90 232.14 154.35 C 224.98 150.45 216.63 148.29 208.57 146.99 C 180.73 142.47 153.11 137.99 125.27 133.48 C 120.41 132.69 115.47 130.95 114.66 123.47 C 113.37 111.48 112.51 99.54 111.36 87.58 C 111.15 85.33 111.05 82.50 108.31 81.42 C 106.54 80.72 104.44 81.03 103.30 82.55 C 101.57 84.83 99.73 86.86 98.01 89.15 C 96.47 91.19 92.49 91.14 90.16 90.08 C 87.54 88.88 85.16 86.62 82.31 86.23 C 76.49 85.45 71.05 85.18 65.23 84.39 C 62.68 84.05 60.10 80.93 60.37 78.37 C 60.64 75.76 60.90 75.02 61.58 73.19 C 64.37 65.71 69.91 57.39 76.86 53.30 C 83.24 49.53 90.69 47.24 99.22 48.81 Z M 276.84 75.24 "
       stroke="#000000"
       stroke-width="8.00"
       fill="none"
       id="Graphic 5" />
    <path
       d="M 62.33 73.35 C 66.27 64.70 75.22 59.08 79.38 58.90 C 93.31 58.29 108.43 57.91 119.28 59.60 C 150.10 64.41 179.28 68.54 207.31 72.98 C 223.95 75.61 240.97 73.31 261.85 76.17 "
       stroke="#000000"
       stroke-width="3.03"
       fill="none"
       id="Graphic 8" />
    <path
       d="M 151.91 32.62 C 151.33 37.39 150.76 42.17 150.18 46.94 C 159.16 45.66 168.13 44.38 177.10 43.10 Z M 151.91 32.62 "
       fill-rule="non-zero"
       fill="#FF0000"
       id="Graphic 28 (1)" />
    <g
       id="g33">
      <path
         d="M 173.78 73.11 L 174.85 65.70 L 182.25 66.77 L 181.18 74.18 Z M 173.78 73.11 "
         fill-rule="non-zero"
         fill="#000000"
         id="Rect 24" />
      <path
         d="M 181.18 74.18 L 182.26 66.77 L 189.66 67.85 L 188.59 75.25 Z M 181.18 74.18 "
         fill-rule="non-zero"
         fill="#FFFFFF"
         id="Rect 24 (1)" />
      <path
         d="M 188.59 75.25 L 189.66 67.85 L 197.06 68.92 L 195.99 76.33 Z M 188.59 75.25 "
         fill-rule="non-zero"
         fill="#000000"
         id="Rect 24 (2)" />
      <path
         d="M 174.84 65.77 L 175.91 58.36 L 183.32 59.43 L 182.25 66.84 Z M 174.84 65.77 "
         fill-rule="non-zero"
         fill="#FFFFFF"
         id="Rect 24 (3)" />
      <path
         d="M 189.65 67.91 L 190.72 60.51 L 198.13 61.58 L 197.05 68.99 Z M 189.65 67.91 "
         fill-rule="non-zero"
         fill="#FFFFFF"
         id="Rect 24 (4)" />
      <path
         d="M 182.24 66.90 L 183.31 59.50 L 190.71 60.57 L 189.64 67.98 Z M 182.24 66.90 "
         fill-rule="non-zero"
         fill="#000000"
         id="Rect 24 (5)" />
      <path
         d="M 175.90 58.43 L 176.98 51.02 L 184.38 52.09 L 183.31 59.50 Z M 175.90 58.43 "
         fill-rule="non-zero"
         fill="#000000"
         id="Rect 24 (11)" />
      <path
         d="M 183.31 59.50 L 184.38 52.09 L 191.79 53.17 L 190.71 60.57 Z M 183.31 59.50 "
         fill-rule="non-zero"
         fill="#FFFFFF"
         id="path18" />
      <path
         d="M 190.71 60.57 L 191.79 53.17 L 199.19 54.24 L 198.12 61.65 Z M 190.71 60.57 "
         fill-rule="non-zero"
         fill="#000000"
         id="path20" />
      <path
         d="M 176.97 51.09 L 178.04 43.68 L 185.45 44.76 L 184.37 52.16 Z M 176.97 51.09 "
         fill-rule="non-zero"
         fill="#FFFFFF"
         id="path22" />
      <path
         d="M 191.78 53.23 L 192.85 45.83 L 200.26 46.90 L 199.18 54.31 Z M 191.78 53.23 "
         fill-rule="non-zero"
         fill="#FFFFFF"
         id="path24" />
      <path
         d="M 184.36 52.22 L 185.44 44.82 L 192.84 45.89 L 191.77 53.30 Z M 184.36 52.22 "
         fill-rule="non-zero"
         fill="#000000"
         id="path26" />
      <path
         d="M 177.75 43.84 L 178.83 36.43 L 186.23 37.51 L 185.16 44.91 Z M 177.75 43.84 "
         fill-rule="non-zero"
         fill="#000000"
         id="Rect 24 (17)" />
      <path
         d="M 185.16 44.91 L 186.23 37.51 L 193.64 38.58 L 192.56 45.99 Z M 185.16 44.91 "
         fill-rule="non-zero"
         fill="#FFFFFF"
         id="path29" />
      <path
         d="M 192.56 45.99 L 193.64 38.58 L 201.04 39.65 L 199.97 47.06 Z M 192.56 45.99 "
         fill-rule="non-zero"
         fill="#000000"
         id="path31" />
    </g>
  </g>
</svg>
