<?xml version="1.0" encoding="UTF-8" standalone="no"?>
<!-- Generator: Adobe Illustrator 13.0.2, SVG Export Plug-In . SVG Version: 6.00 Build 14948)  -->

<svg
   xmlns:dc="http://purl.org/dc/elements/1.1/"
   xmlns:cc="http://creativecommons.org/ns#"
   xmlns:rdf="http://www.w3.org/1999/02/22-rdf-syntax-ns#"
   xmlns:svg="http://www.w3.org/2000/svg"
   xmlns="http://www.w3.org/2000/svg"
   xmlns:sodipodi="http://sodipodi.sourceforge.net/DTD/sodipodi-0.dtd"
   xmlns:inkscape="http://www.inkscape.org/namespaces/inkscape"
   version="1.1"
   id="Layer_1"
   x="0px"
   y="0px"
   width="423"
   height="395"
   viewBox="-19.686 -22.411 423 395"
   enable-background="new -19.686 -22.411 470 490"
   xml:space="preserve"
   inkscape:version="0.92.4 (unknown)"
   sodipodi:docname="Circuit_Yas-Island.svg"><metadata
     id="metadata473"><rdf:RDF><cc:Work
         rdf:about=""><dc:format>image/svg+xml</dc:format><dc:type
           rdf:resource="http://purl.org/dc/dcmitype/StillImage" /></cc:Work></rdf:RDF></metadata><defs
     id="defs471" /><sodipodi:namedview
     pagecolor="#ffffff"
     bordercolor="#666666"
     borderopacity="1"
     objecttolerance="10"
     gridtolerance="10"
     guidetolerance="10"
     inkscape:pageopacity="0"
     inkscape:pageshadow="2"
     inkscape:window-width="1338"
     inkscape:window-height="712"
     id="namedview469"
     showgrid="false"
     inkscape:zoom="0.97227182"
     inkscape:cx="193.97459"
     inkscape:cy="241.76372"
     inkscape:window-x="11"
     inkscape:window-y="39"
     inkscape:window-maximized="1"
     inkscape:current-layer="Layer_1" /><path
     d="m 78.932106,104.30657 c 0,0 11.49204,-15.823113 22.245044,-3.53311 l 73.9307,81.91201 7.86415,11.44103 c 0,0 8.2222,7.43307 13.16372,-3.27247"
     id="path3"
     style="fill:none;stroke:#bebebe;stroke-width:2.70000005;stroke-linecap:round;stroke-linejoin:round;stroke-miterlimit:4;stroke-dasharray:none;stroke-opacity:1"
     inkscape:connector-curvature="0"
     sodipodi:nodetypes="ccccc" /><path
     d="m 235.32694,103.76289 c 0,0 -3.07994,17.06861 -2.46894,28.00861 0.609,10.94 2.25507,18.7536 -13.54593,33.9476 -22.80942,20.12414 -22.91582,23.83826 -22.91582,23.83826"
     id="path5"
     inkscape:connector-curvature="0"
     style="fill:none;stroke:#bebebe;stroke-width:3;stroke-linecap:round;stroke-linejoin:round;stroke-miterlimit:4;stroke-dasharray:none;stroke-opacity:1"
     sodipodi:nodetypes="cccc" /><path
     d="m 47.485001,337.3755 c 3.814,-1.552 8.24,2.811 10.911,6.118 1.479,1.83 4.105,2.191 6.603,0.478 6.563,-4.511 18.733995,-12.955 20.661995,-14.885 2.662,-2.661 7.986,-6.211 2.952,-11.566 -5.524,-5.875 -42.634995,-48.188 -44.362995,-50.455 -1.728,-2.267 -4.714,-6.369 -4.917,-8.795 -0.202,-2.427 -0.448,-21.449 -0.541,-27.397 -0.094,-5.949 0.449,-7.87 2.44,-9.675 1.991,-1.807 15.384,-14.603 19.057,-17.115 3.673,-2.518 6.897,2.839 14.512,11.509 7.616995,8.67 9.297995,7.962 12.034995,6.66 2.737,-1.299 16.528004,-11.314 21.178004,-14.146 4.651,-2.832 4.759,-6.354 3.854,-8.388 -0.906,-2.034 -7.478,-15.442 -7.478,-15.442 0,0 -33.642999,-37.059 -37.725999,-41.469 -4.082,-4.415 -5.422,-8.05 -3.669,-11.109 1.753,-3.058 15.536995,-30.845 15.536995,-30.845 0,0 1.516,-4.310003 6.005,-8.667003 7.262,-6.829 11.137,-6.918 14.75,-2.935 3.612004,3.982 81.617004,91.496003 88.251004,98.407003 6.633,6.912 11.21,6.429 14.567,2.938 3.358,-3.492 25.771,-24.103 33.66,-31.051 7.891,-6.949 8.895,-12.587 7.98,-16.695 -0.91,-4.106 -4.746,-18.815 -6.246,-23.978 -1.502,-5.163 -0.91466,-18.66369 2.753,-24.394003 8.34127,-14.29293 13.507,-14.245 33.962,-20.601 11.108,-3.451 25.999,-11.303 32.055,-16.994 6.052,-5.692 38.09074,-35.052271 38.09074,-35.052271 0,0 -2.50074,-4.928729 -3.60874,-9.388729 -1.104,-4.4579999 2.53,-5.7989999 2.53,-5.7989999 l 24.523,-6.09199999 c 0,0 7.864,-1.62500001 6.32,-7.68800001 -1.541,-6.0620001 -8.671,-3.1080001 -8.671,-3.1080001 l -223.581,58.352 -31.86052,11.59973 -54.439479,14.92627 c -3.825,1.401 -8.141,3.208 -5.472,6.333 2.669,3.125 5.81,6.678 7.265,8.866 1.454,2.188 5.06,4.096 1.195,8.334 -3.865,4.237003 -12.460109,14.826293 -18.185109,25.644293 -7.561182,13.38526 -17.308964,42.16213 -19.186746,92.58955 -1.14,15.727 -0.937775,45.49945 -0.833109,60.78949 0.104667,15.29004 7.746964,51.80967 10.996964,61.13767 2.082,5.978 10.915,1.173 16.133,-0.952 z"
     id="path25"
     inkscape:connector-curvature="0"
     style="fill:none;stroke:#000000;stroke-width:7.30000019;stroke-linecap:round;stroke-linejoin:round;stroke-miterlimit:4;stroke-dasharray:none"
     sodipodi:nodetypes="cccccscccccccccccccscscccccccccccccccscccczcc" /><polygon
     points="165.884,161.959 159.067,168.036 174.496,178.485 "
     id="polygon27"
     transform="translate(-36.164092,-61.150791)"
     style="fill:#d2232a" /><g
     id="g4234"><rect
       style="fill:#ffffff"
       id="rect75"
       height="2.8458674"
       width="2.8518672"
       transform="rotate(138.63674)"
       y="-185.9619"
       x="-27.0525" /><rect
       id="rect77"
       height="2.850996"
       width="2.8529959"
       transform="rotate(138.67717)"
       y="-185.95856"
       x="-24.303783" /><rect
       style="fill:#ffffff"
       id="rect79"
       height="2.8501067"
       width="2.8471067"
       transform="rotate(138.64861)"
       y="-185.96478"
       x="-21.327318" /><polygon
       transform="translate(-33.049686,-59.07452)"
       id="polygon81"
       points="169.779,186.475 167.889,184.337 165.753,186.221 167.637,188.36 " /><polygon
       style="fill:#ffffff"
       transform="translate(-33.049686,-59.07452)"
       id="polygon83"
       points="167.62,188.372 165.733,186.23 163.594,188.118 165.477,190.254 " /><rect
       id="rect85"
       height="2.8510218"
       width="2.8530216"
       transform="rotate(138.68526)"
       y="-185.96095"
       x="-12.836265" /><rect
       style="fill:#ffffff"
       id="rect87"
       height="2.8511679"
       width="2.8501678"
       transform="rotate(138.60388)"
       y="-185.96347"
       x="-9.689065" /><polygon
       transform="translate(-33.049686,-59.07452)"
       id="polygon89"
       points="161.147,194.075 159.261,191.932 157.123,193.817 159.004,195.953 " /><rect
       id="rect91"
       height="2.8491931"
       width="2.8551934"
       transform="rotate(138.61197)"
       y="-188.84476"
       x="-26.956606" /><polygon
       style="fill:#ffffff"
       transform="translate(-33.049686,-59.07452)"
       id="polygon93"
       points="175.986,184.834 174.104,182.693 171.967,184.578 173.847,186.719 " /><rect
       id="rect95"
       height="2.8499959"
       width="2.8499959"
       transform="rotate(138.67717)"
       y="-188.80531"
       x="-21.436552" /><rect
       style="fill:#ffffff"
       id="rect97"
       height="2.8518929"
       width="2.850893"
       transform="rotate(138.64482)"
       y="-188.84995"
       x="-18.457701" /><rect
       id="rect99"
       height="2.854996"
       width="2.8529959"
       transform="rotate(138.67717)"
       y="-188.83722"
       x="-15.686755" /><polygon
       style="fill:#ffffff"
       transform="translate(-33.049686,-59.07452)"
       id="polygon101"
       points="167.356,192.431 165.479,190.29 163.337,192.174 165.22,194.313 " /><rect
       id="rect103"
       height="2.8529286"
       width="2.8529286"
       transform="rotate(138.592)"
       y="-188.86235"
       x="-9.6528301" /><rect
       style="fill:#ffffff"
       id="rect105"
       height="2.8490667"
       width="2.8530669"
       transform="rotate(138.57153)"
       y="-188.84503"
       x="-6.7099943" /><polygon
       style="fill:#ffffff"
       transform="translate(-33.049686,-59.07452)"
       id="polygon107"
       points="180.043,185.092 178.164,182.95 176.017,184.834 177.906,186.975 " /><rect
       id="rect109"
       height="2.8500047"
       width="2.8500047"
       transform="rotate(138.61626)"
       y="-185.99168"
       x="-29.828819" /><rect
       style="fill:#ffffff"
       id="rect111"
       height="2.8471169"
       width="2.8481171"
       transform="rotate(138.58771)"
       y="-188.85994"
       x="-29.741566" /><rect
       id="rect113"
       height="2.8510478"
       width="2.8510478"
       transform="rotate(138.69334)"
       y="-191.68855"
       x="-30.087238" /><rect
       id="rect115"
       height="2.8509443"
       width="2.8459444"
       transform="rotate(138.661)"
       y="-191.71132"
       x="-24.289686" /><rect
       style="fill:#ffffff"
       id="rect117"
       height="2.847954"
       width="2.851954"
       transform="rotate(138.60009)"
       y="-191.74025"
       x="-21.173492" /><rect
       id="rect119"
       height="2.8490813"
       width="2.8540814"
       transform="rotate(138.64052)"
       y="-191.71342"
       x="-18.432276" /><rect
       style="fill:#ffffff"
       id="rect121"
       height="2.8490047"
       width="2.8480048"
       transform="rotate(138.61626)"
       y="-191.7162"
       x="-15.490857" /><rect
       id="rect123"
       height="2.8471675"
       width="2.8501678"
       transform="rotate(138.60388)"
       y="-191.71152"
       x="-12.557855" /><polygon
       style="fill:#ffffff"
       transform="translate(-33.049686,-59.07452)"
       id="polygon125"
       points="167.099,196.486 165.216,194.346 163.081,196.23 164.96,198.37 " /><rect
       id="rect127"
       height="2.8510737"
       width="2.8510737"
       transform="rotate(138.70143)"
       y="-191.70149"
       x="-7.1457744" /></g></svg>