<?xml version="1.0" encoding="UTF-8" standalone="no"?>
<svg
   xmlns:dc="http://purl.org/dc/elements/1.1/"
   xmlns:cc="http://creativecommons.org/ns#"
   xmlns:rdf="http://www.w3.org/1999/02/22-rdf-syntax-ns#"
   xmlns:svg="http://www.w3.org/2000/svg"
   xmlns="http://www.w3.org/2000/svg"
   xmlns:sodipodi="http://sodipodi.sourceforge.net/DTD/sodipodi-0.dtd"
   xmlns:inkscape="http://www.inkscape.org/namespaces/inkscape"
   clip-rule="evenodd"
   stroke-miterlimit="10"
   viewBox="0 0 481.89 340.16"
   version="1.1"
   id="svg2989"
   sodipodi:docname="Circuit_Sochi.svg"
   inkscape:version="0.92.4 (unknown)">
  <metadata
     id="metadata2993">
    <rdf:RDF>
      <cc:Work
         rdf:about="">
        <dc:format>image/svg+xml</dc:format>
        <dc:type
           rdf:resource="http://purl.org/dc/dcmitype/StillImage" />
      </cc:Work>
    </rdf:RDF>
  </metadata>
  <sodipodi:namedview
     pagecolor="#ffffff"
     bordercolor="#666666"
     borderopacity="1"
     objecttolerance="10"
     gridtolerance="10"
     guidetolerance="10"
     inkscape:pageopacity="0"
     inkscape:pageshadow="2"
     inkscape:window-width="1338"
     inkscape:window-height="712"
     id="namedview2991"
     showgrid="false"
     inkscape:zoom="1.3875823"
     inkscape:cx="173.81962"
     inkscape:cy="165.04191"
     inkscape:window-x="11"
     inkscape:window-y="39"
     inkscape:window-maximized="0"
     inkscape:current-layer="svg2989" />
  <desc
     id="desc2827">SVG generated by Lineform</desc>
  <defs
     id="defs2829" />
  <path
     d="m 401.94,66.68 c 1.11,-1.53 6.25,-5.79 7.73,-6.98 5.01,-4.05 10.43,-16.11 11.83,-15.47 1.19,0.54 18.68,7.84 19.68,8.22 1.57,0.58 1.39,1.79 0.74,3.07 -1.79,3.53 -53.03,80.65 -54.17,82.21 -6.61,9.06 -12.1,12.8 -21.02,15.5 -3.39,1.03 -15.2,7.62 -19.67,8.72"
     id="path2835"
     inkscape:connector-curvature="0"
     style="fill:none;stroke:#cec3c3;stroke-width:2.42000008;stroke-opacity:1" />
  <g
     id="g2987">
    <path
       d="m 367.89,158.15 c 10.86,-4.45 16.34,-5.84 25.22,-18.37 1.97,-2.78 50.33,-76.14 53.25,-80.73 3.09,-4.86 6.05,-8.45 2.07,-10.21 l -23.87,-9.15 c -5.26,-1.39 -6.2,-0.39 -10.41,6.21 -7.45,11.67 -27.65,40.15 -29.25,42.7 -1.07,1.71 -5.75,9.48 -7.41,12.93 -1.04,2.17 -2.01,4.57 2.27,7.75 1.54,1.14 3.55,2.18 7.5,4.35 1.36,0.75 2.9,4.13 0,8.25 -4.32,6.14 -6.36,8.03 -14.49,19.68 -2.56,3.66 -11.16,7.36 -20.2,9.65 -5.99,1.52 -9.88,-14.38 -11.76,-19.48 -1.54,-4.17 -21.68,16.06 -59.6,3.68 -25.97,-8.49 -29.7,-13.12 -56.99,-22.34 -23.83,-8.06 -40.4,-9.7 -54.46,-11.2 -19.1,-2.03 -23.84,-1.22 -58.76,10.68 -4.22,1.44 -4.11,4.53 -3.59,6.07 8.47,25.2 18.96,47.48 18.45,47.81 l -4.32,19.05 c -0.39,2.11 -4.1,2.95 -6.61,3.32 -19.17,2.81 -47.61,6.72 -57.35,8.05 -2.73,0.37 -5.74,0.29 -6.6,4.55 -5.12,25.29 -6.98,25.02 -3.61,32.89 1.18,2.78 13.11,31.28 15.72,36.47 2.76,5.47 7.32,4.21 12.33,1.34 2.4,-1.37 64.02,-30.85 71.47,-34.4 2.41,-1.15 7.71,-3.76 4.83,-9.68 -5.78,-11.87 -8.3,-17.69 -10.23,-20.86 -6.33,-10.43 -9.37,-40.58 16.41,-51.41 26.97,-11.32 41.97,1.18 53.79,11.28 9.92,8.47 12.67,10.91 14.64,15.51 3.6,8.4 3.41,10.98 8.44,9.53 z m -55.78,21.83"
       id="path2833"
       inkscape:connector-curvature="0"
       style="fill:none;stroke:#000000;stroke-width:5.26999998" />
    <g
       id="g2871">
      <path
         d="m 441.67,86.77 6.38,4.2 -10.78,9.57 z m 0,0"
         fill-rule="non-zero"
         id="path2837"
         inkscape:connector-curvature="0"
         style="fill:#ff0000" />
      <g
         id="g2869">
        <path
           d="m 416.25,92.05 4.23,2.59 -2.59,4.24 -4.23,-2.59 z m 0,0"
           fill-rule="non-zero"
           id="path2839"
           inkscape:connector-curvature="0"
           style="fill:#000000" />
        <path
           d="m 413.66,96.29 4.23,2.59 -2.59,4.24 -4.24,-2.6 z m 0,0"
           fill-rule="non-zero"
           id="path2841"
           inkscape:connector-curvature="0"
           style="fill:#ffffff" />
        <path
           d="m 411.06,100.52 4.24,2.6 -2.59,4.23 -4.24,-2.59 z m 0,0"
           fill-rule="non-zero"
           id="path2843"
           inkscape:connector-curvature="0"
           style="fill:#000000" />
        <path
           d="m 420.45,94.62 4.23,2.59 -2.59,4.24 -4.23,-2.59 z m 0,0"
           fill-rule="non-zero"
           id="path2845"
           inkscape:connector-curvature="0"
           style="fill:#ffffff" />
        <path
           d="m 415.26,103.09 4.24,2.59 -2.59,4.24 -4.24,-2.59 z m 0,0"
           fill-rule="non-zero"
           id="path2847"
           inkscape:connector-curvature="0"
           style="fill:#ffffff" />
        <path
           d="m 417.82,98.83 4.24,2.6 -2.6,4.23 -4.23,-2.59 z m 0,0"
           fill-rule="non-zero"
           id="path2849"
           inkscape:connector-curvature="0"
           style="fill:#000000" />
        <path
           d="m 424.65,97.19 4.23,2.59 -2.59,4.24 -4.23,-2.59 z m 0,0"
           fill-rule="non-zero"
           id="path2851"
           inkscape:connector-curvature="0"
           style="fill:#000000" />
        <path
           d="m 422.06,101.43 4.23,2.59 -2.59,4.23 -4.24,-2.59 z m 0,0"
           fill-rule="non-zero"
           id="path2853"
           inkscape:connector-curvature="0"
           style="fill:#ffffff" />
        <path
           d="m 419.46,105.66 4.24,2.59 -2.59,4.24 -4.24,-2.59 z m 0,0"
           fill-rule="non-zero"
           id="path2855"
           inkscape:connector-curvature="0"
           style="fill:#000000" />
        <path
           d="m 428.85,99.76 4.23,2.59 -2.59,4.23 -4.23,-2.59 z m 0,0"
           fill-rule="non-zero"
           id="path2857"
           inkscape:connector-curvature="0"
           style="fill:#ffffff" />
        <path
           d="m 423.66,108.23 4.24,2.59 -2.59,4.24 -4.24,-2.59 z m 0,0"
           fill-rule="non-zero"
           id="path2859"
           inkscape:connector-curvature="0"
           style="fill:#ffffff" />
        <path
           d="m 426.22,103.97 4.24,2.59 -2.6,4.24 -4.23,-2.59 z m 0,0"
           fill-rule="non-zero"
           id="path2861"
           inkscape:connector-curvature="0"
           style="fill:#000000" />
        <path
           d="m 433.06,102.13 4.24,2.59 -2.59,4.24 -4.24,-2.59 z m 0,0"
           fill-rule="non-zero"
           id="path2863"
           inkscape:connector-curvature="0"
           style="fill:#000000" />
        <path
           d="m 430.47,106.37 4.24,2.59 -2.59,4.24 -4.24,-2.59 z m 0,0"
           fill-rule="non-zero"
           id="path2865"
           inkscape:connector-curvature="0"
           style="fill:#ffffff" />
        <path
           d="m 427.88,110.6 4.24,2.6 -2.59,4.23 -4.24,-2.59 z m 0,0"
           fill-rule="non-zero"
           id="path2867"
           inkscape:connector-curvature="0"
           style="fill:#000000" />
      </g>
    </g>
  </g>
</svg>
