<?xml version="1.0" encoding="UTF-8" standalone="no"?>
<svg
   xmlns:dc="http://purl.org/dc/elements/1.1/"
   xmlns:cc="http://creativecommons.org/ns#"
   xmlns:rdf="http://www.w3.org/1999/02/22-rdf-syntax-ns#"
   xmlns:svg="http://www.w3.org/2000/svg"
   xmlns="http://www.w3.org/2000/svg"
   xmlns:sodipodi="http://sodipodi.sourceforge.net/DTD/sodipodi-0.dtd"
   xmlns:inkscape="http://www.inkscape.org/namespaces/inkscape"
   clip-rule="evenodd"
   stroke-miterlimit="10"
   viewBox="0 0 680.31 510.24"
   version="1.1"
   id="svg1457"
   sodipodi:docname="Circuit_Red_Bull_Ring.svg"
   inkscape:version="0.92.4 (unknown)">
  <metadata
     id="metadata1461">
    <rdf:RDF>
      <cc:Work
         rdf:about="">
        <dc:format>image/svg+xml</dc:format>
        <dc:type
           rdf:resource="http://purl.org/dc/dcmitype/StillImage" />
      </cc:Work>
    </rdf:RDF>
  </metadata>
  <sodipodi:namedview
     pagecolor="#ffffff"
     bordercolor="#666666"
     borderopacity="1"
     objecttolerance="10"
     gridtolerance="10"
     guidetolerance="10"
     inkscape:pageopacity="0"
     inkscape:pageshadow="2"
     inkscape:window-width="1338"
     inkscape:window-height="712"
     id="namedview1459"
     showgrid="false"
     inkscape:zoom="1.0426466"
     inkscape:cx="340.155"
     inkscape:cy="255.12"
     inkscape:window-x="11"
     inkscape:window-y="39"
     inkscape:window-maximized="1"
     inkscape:current-layer="g1455" />
  <desc
     id="desc1313">SVG generated by Lineform</desc>
  <defs
     id="defs1315" />
  <path
     d="m 607.54,286.48 -2.58,31.69 c 0,0 0.35,5.92 -6.54,11.56 0,0 -16.75,11.46 -27.2,16.04 l -106.36,25.93 -72.82,19.23 -85,21.35 -5.52,1.68 c 0,0 -10.41,0.51 -17.01,-12.01 0,0 -6.32,-9.86 -15.95,-16.59 L 253.48,374.7"
     id="path1319"
     inkscape:connector-curvature="0"
     style="fill:none;stroke:#a0a0a0;stroke-width:4.03999996;stroke-opacity:1" />
  <g
     id="g1455">
    <path
       d="m 567.8,358.72 c -53.51,13.54 -107.02,27.08 -160.52,40.62 -35.64,8.84 -71.28,17.68 -106.91,26.52 -4.14,0.89 -8.94,2.64 -12.83,0.72 0,0 -5.38,-9.78 -8.59,-15.72 0,0 -8.42,-14.01 -28.68,-39.41 L 227.41,339.32 150.03,185.06 66.76,89.44 c 0,0 -12.1,-11.72 5.12,-15.45 l 71.9,-1.78 50.21,9.54 74.62,13.62 68.35,6.9 71,5.47 c 0,0 17.91,3.77 10.13,21.5 0,0 -20.97,41.77 -67.85,47.33 0,0 -11.52,4.11 -62.17,-5.78 0,0 -35.54,-11.84 -52.46,-3.75 0,0 -23.63,9.48 -22.24,35.47 0,0 0.55,6.14 4.24,13.73 l 34.09,63.28 c 0,0 20.22,23.16 47.47,5.5 l 33.29,-34.78 c 0,0 16.16,-11.77 37.62,-13.2 l 166.05,0.37 39.91,0.02 c 0,0 15.67,0.35 21.71,14.72 l 18.32,69.16 c 0,0 4.4,12.13 -8.65,18.49 z m 0,0"
       id="path1317"
       inkscape:connector-curvature="0"
       style="fill:none;stroke:#000000;stroke-width:7.34000015" />
    <path
       d="m 489.38,389.94 2.41,11.14 -21.46,-1.05 z m 0,0"
       fill-rule="non-zero"
       id="path1367"
       inkscape:connector-curvature="0"
       style="fill:#ff0000" />
    <g
       id="g1399">
      <path
         d="m 456.77,369.06 1.81,7.18 -7.18,1.82 -1.81,-7.18 z m 0,0"
         fill-rule="non-zero"
         id="path1369"
         inkscape:connector-curvature="0"
         style="fill:#000000" />
      <path
         d="m 449.59,370.88 1.81,7.18 -7.18,1.81 -1.81,-7.18 z m 0,0"
         fill-rule="non-zero"
         id="path1371"
         inkscape:connector-curvature="0"
         style="fill:#ffffff" />
      <path
         d="m 442.41,372.69 1.81,7.18 -7.18,1.82 -1.81,-7.18 z m 0,0"
         fill-rule="non-zero"
         id="path1373"
         inkscape:connector-curvature="0"
         style="fill:#000000" />
      <path
         d="m 458.57,376.18 1.81,7.18 -7.18,1.82 -1.81,-7.18 z m 0,0"
         fill-rule="non-zero"
         id="path1375"
         inkscape:connector-curvature="0"
         style="fill:#ffffff" />
      <path
         d="m 444.21,379.81 1.81,7.18 -7.18,1.81 -1.81,-7.18 z m 0,0"
         fill-rule="non-zero"
         id="path1377"
         inkscape:connector-curvature="0"
         style="fill:#ffffff" />
      <path
         d="m 451.37,377.93 1.82,7.18 -7.18,1.82 -1.82,-7.18 z m 0,0"
         fill-rule="non-zero"
         id="path1379"
         inkscape:connector-curvature="0"
         style="fill:#000000" />
      <path
         d="m 460.37,383.3 1.81,7.18 -7.18,1.81 -1.81,-7.18 z m 0,0"
         fill-rule="non-zero"
         id="path1381"
         inkscape:connector-curvature="0"
         style="fill:#000000" />
      <path
         d="m 453.19,385.11 1.81,7.18 -7.18,1.82 -1.81,-7.18 z m 0,0"
         fill-rule="non-zero"
         id="path1383"
         inkscape:connector-curvature="0"
         style="fill:#ffffff" />
      <path
         d="m 446.01,386.93 1.81,7.18 -7.18,1.81 -1.82,-7.18 z m 0,0"
         fill-rule="non-zero"
         id="path1385"
         inkscape:connector-curvature="0"
         style="fill:#000000" />
      <path
         d="m 462.16,390.42 1.82,7.18 -7.18,1.81 -1.82,-7.18 z m 0,0"
         fill-rule="non-zero"
         id="path1387"
         inkscape:connector-curvature="0"
         style="fill:#ffffff" />
      <path
         d="m 447.8,394.04 1.82,7.18 -7.18,1.82 -1.82,-7.18 z m 0,0"
         fill-rule="non-zero"
         id="path1389"
         inkscape:connector-curvature="0"
         style="fill:#ffffff" />
      <path
         d="m 454.97,392.17 1.81,7.18 -7.18,1.81 -1.81,-7.18 z m 0,0"
         fill-rule="non-zero"
         id="path1391"
         inkscape:connector-curvature="0"
         style="fill:#000000" />
      <path
         d="m 464.18,397.34 1.82,7.18 -7.18,1.82 -1.82,-7.18 z m 0,0"
         fill-rule="non-zero"
         id="path1393"
         inkscape:connector-curvature="0"
         style="fill:#000000" />
      <path
         d="m 457,399.16 1.82,7.18 -7.18,1.81 -1.82,-7.18 z m 0,0"
         fill-rule="non-zero"
         id="path1395"
         inkscape:connector-curvature="0"
         style="fill:#ffffff" />
      <path
         d="m 449.82,400.97 1.82,7.18 -7.19,1.82 -1.81,-7.18 z m 0,0"
         fill-rule="non-zero"
         id="path1397"
         inkscape:connector-curvature="0"
         style="fill:#000000" />
    </g>
  </g>
</svg>
