<?xml version="1.0" encoding="UTF-8" standalone="no"?>
<svg
   xmlns:dc="http://purl.org/dc/elements/1.1/"
   xmlns:cc="http://creativecommons.org/ns#"
   xmlns:rdf="http://www.w3.org/1999/02/22-rdf-syntax-ns#"
   xmlns:svg="http://www.w3.org/2000/svg"
   xmlns="http://www.w3.org/2000/svg"
   xmlns:sodipodi="http://sodipodi.sourceforge.net/DTD/sodipodi-0.dtd"
   xmlns:inkscape="http://www.inkscape.org/namespaces/inkscape"
   width="1594.1333"
   height="778.13336"
   id="svg3151"
   version="1.1"
   inkscape:version="0.92.4 (unknown)"
   sodipodi:docname="Circuit_Gilles_Villeneuve.svg"
   viewBox="0 0 1494.5 729.5">
  <metadata
     id="metadata3315">
    <rdf:RDF>
      <cc:Work
         rdf:about="">
        <dc:format>image/svg+xml</dc:format>
        <dc:type
           rdf:resource="http://purl.org/dc/dcmitype/StillImage" />
      </cc:Work>
    </rdf:RDF>
  </metadata>
  <defs
     id="defs3313" />
  <sodipodi:namedview
     pagecolor="#ffffff"
     bordercolor="#666666"
     borderopacity="1"
     objecttolerance="10"
     gridtolerance="10"
     guidetolerance="10"
     inkscape:pageopacity="0"
     inkscape:pageshadow="2"
     inkscape:window-width="1338"
     inkscape:window-height="712"
     id="namedview3311"
     showgrid="false"
     inkscape:zoom="0.43765391"
     inkscape:cx="696.72277"
     inkscape:cy="442.88781"
     inkscape:window-x="11"
     inkscape:window-y="39"
     inkscape:window-maximized="1"
     inkscape:current-layer="track" />
  <g
     id="track">
    <path
       d="m 585.51052,524.48414 c -7.3,-0.5 -17.9,-2 -24.3,-1.8 -14.2,0.5 -28.7,2 -42.7,1 -3.6,-0.3 -6.6,-3.5 -10,-5.2 -8.8,-3.9 -17.6,-8.6 -26.8,-11.3 -5.1,-1.6 -10.5,-1.5 -16,-1.5 -58.5,0.5 -117,2.5 -175.5,3.5 -21.5,0.2 -43.3,0.7 -65,-0.3 -20,-0.9 -40,-4.2 -60,-5.3 -27,-1.4 -54.2,-1.4 -81.500002,-2 -11.5,-0.4 -23.3,0.1 -33.8,2.6"
       style="fill:none;stroke:#000000;stroke-width:5"
       id="path3233"
       inkscape:connector-curvature="0" />
    <path
       d="m 398.82258,499.4476 c -35.37915,0.80866 -70.85939,1.01083 -106.33962,1.11191 -19.30691,0 -38.7149,1.01084 -58.12289,-0.30325 -14.96032,-1.01083 -29.81956,-2.93141 -44.27447,-6.77258 -23.04699,-6.06499 -45.48748,-14.96032 -68.23122,-22.74373 -9.19858,-3.0325 -18.19499,-7.68233 -27.393572,-9.704 -3.942248,-0.90975 -8.794246,-0.90975 -12.231078,1.11192 -5.357414,3.33574 -10.411578,8.99641 -14.151659,14.65707 -3.942248,6.065 -4.851998,15.16249 -9.097496,20.21666 -3.032498,3.84116 -8.895329,6.57041 -13.24191,6.57041 -4.245498,-0.10108 -9.501828,-3.33575 -13.039743,-6.57041 -3.537915,-3.33575 -6.570414,-8.28883 -8.187746,-13.14083 -1.51625,-4.54875 -2.223833,-10.10833 -1.51625,-14.96032 1.111917,-7.78342 3.638999,-15.56683 6.77258,-22.74374 8.693163,-19.50908 22.541573,-24.96757 32.953151,-43.36473 3.335748,-6.36825 7.884496,-11.72566 12.534327,-16.98199 10.512661,-11.72566 21.025323,-23.55241 32.649896,-33.8629 25.27083,-22.23832 51.35031,-43.97123 78.13738,-63.17705 2.426,-2.02167 6.46933,-2.02167 9.29967,-1.01084 8.59208,3.53792 16.17332,12.53433 24.86648,15.1625 5.55958,1.71841 12.63541,0.80866 18.19499,-1.8195 24.46216,-11.82675 49.0254,-25.47299 71.46589,-41.1409 13.34299,-9.40075 23.04698,-24.36107 35.88456,-34.4694 7.48016,-5.96391 16.17333,-10.51266 25.27082,-13.54516 10.51266,-3.639 22.23832,-7.07583 33.35749,-6.065 27.29248,2.32492 54.58497,10.41158 81.87746,16.17333 12.53432,2.72925 37.40081,7.88449 49.83405,9.29966 4.54875,0.50542 9.60292,-1.01083 13.54516,-3.23466 3.84117,-2.52709 7.78342,-6.57042 9.704,-10.71483 1.92058,-4.44767 1.71841,-10.3105 1.71841,-15.56683 0,-5.05416 1.213,-10.71483 2.52709,-15.46574 2.22383,-7.98558 6.87366,-16.67874 12.43324,-22.64265 5.25633,-5.55958 12.83758,-9.704 20.21666,-11.92783 11.62457,-3.53792 11.62457,-4.75092 23.75457,-5.25633 10.00724,-0.30325 15.87007,1.01083 25.9784,2.22383 36.8954,4.95308 74.09405,9.60291 110.6862,16.07224 17.38632,3.13358 34.26723,8.69316 51.24922,13.24191 13.9495,3.53792 28.10115,6.36825 41.7474,11.32133 22.23832,7.88449 44.37556,16.77982 65.70413,27.29248 23.95674,11.62458 46.70048,26.07949 70.05072,39.01815 8.28883,4.75092 17.38633,8.491 25.16973,13.84841 3.3357,2.22383 7.6823,5.05417 8.8953,8.79425 1.5163,3.84116 -0.8087,9.09749 -1.0108,13.64624 -0.3033,5.86283 -1.3141,11.92783 -0.5054,17.48741 1.0108,5.05416 3.0325,10.61374 6.065,14.45491 4.852,6.26716 11.4224,11.72566 17.9928,16.17332 16.3755,11.32133 33.2564,21.93508 50.7438,31.03257 33.1553,17.18416 67.1193,33.15532 101.3865,47.81239 22.4405,9.50183 45.5886,17.68958 68.8377,24.86649 11.2203,3.33575 22.8449,4.852 34.4694,6.6715 15.1625,2.22383 30.6283,4.54875 45.9929,5.35741 18.3972,0.90975 36.7944,0 55.0904,-0.50541 11.6246,-0.30325 23.2492,-1.8195 34.8738,-1.8195 3.2346,0 7.5812,-0.50542 9.4007,1.71841 2.1228,2.62817 2.1228,8.38992 2.2238,12.43325 0.2022,2.52708 0,5.86283 -1.314,7.58124 -2.426,3.23467 -6.2672,6.36825 -9.9062,7.278 -8.6932,2.12275 -18.2961,2.62816 -27.2925,2.02167 -5.9639,-0.30325 -11.5235,-4.04334 -17.5885,-4.75092 -10.7148,-1.61733 -21.7329,-2.62816 -32.3466,-2.02166 -6.7726,0.20216 -13.343,2.72924 -19.9134,4.44766 -18.8015,5.15525 -37.2998,11.92783 -56.2023,16.27441 -36.0868,8.28883 -74.1952,11.32133 -110.5852,17.99282 -23.8556,4.2455 -47.8124,8.08667 -71.8702,11.32133 -11.3213,1.51625 -22.9459,2.83033 -34.3683,3.0325 -43.668,1.01083 -88.44784,-1.51625 -132.21691,-1.01083 -78.23846,0.90975 -157.08342,0.80866 -235.42296,1.01083 -36.49107,0.30325 -74.29622,-5.35742 -110.28186,-7.78341 -3.23467,-0.30325 -5.96392,-3.84117 -7.48017,-6.87367 -2.62816,-4.34658 -2.52708,-11.11916 -5.05416,-15.16249 -1.71842,-2.72925 -5.05417,-5.05416 -8.08666,-5.55958 -7.58125,-1.31408 -15.97116,-0.50542 -24.05783,-0.30325 -22.9459,0.20217 -45.68964,0.6065 -68.53446,1.31408 -24.66432,0.70759 -49.12648,2.52708 -73.68971,2.93142 z"
       style="fill:none;stroke:#000000;stroke-width:15.16249275"
       id="path3235"
       inkscape:connector-curvature="0" />
  </g>
  <g
     id="finish"
     transform="translate(10.710518,85.684141)">
    <rect
       id="rect3279"
       style="fill:#000000;stroke:#ffffff;stroke-width:3.5"
       y="387"
       x="273.5"
       height="51.200001"
       width="20" />
    <rect
       id="rect3281"
       style="fill:#ffffff"
       y="389.5"
       x="275.79999"
       height="5.1999998"
       width="5.1999998" />
    <rect
       id="rect3283"
       style="fill:#ffffff"
       y="394.5"
       x="281"
       height="5.1999998"
       width="5.1999998" />
    <rect
       id="rect3285"
       style="fill:#ffffff"
       y="389.5"
       x="286.20001"
       height="5.1999998"
       width="5.1999998" />
    <rect
       id="rect3287"
       style="fill:#ffffff"
       y="399.79999"
       x="275.79999"
       height="5.1999998"
       width="5.1999998" />
    <rect
       id="rect3289"
       style="fill:#ffffff"
       y="405"
       x="281"
       height="5.1999998"
       width="5.1999998" />
    <rect
       id="rect3291"
       style="fill:#ffffff"
       y="399.79999"
       x="286.20001"
       height="5.1999998"
       width="5.1999998" />
    <rect
       id="rect3293"
       style="fill:#ffffff"
       y="410.20001"
       x="275.79999"
       height="5.1999998"
       width="5.1999998" />
    <rect
       id="rect3295"
       style="fill:#ffffff"
       y="415.5"
       x="281"
       height="5.1999998"
       width="5.1999998" />
    <rect
       id="rect3297"
       style="fill:#ffffff"
       y="410.20001"
       x="286.20001"
       height="5.1999998"
       width="5.1999998" />
    <rect
       id="rect3299"
       style="fill:#ffffff"
       y="420.5"
       x="275.79999"
       height="5.1999998"
       width="5.1999998" />
    <rect
       id="rect3301"
       style="fill:#ffffff"
       y="425.79999"
       x="281"
       height="5.1999998"
       width="5.1999998" />
    <rect
       id="rect3303"
       style="fill:#ffffff"
       y="420.5"
       x="286.20001"
       height="5.1999998"
       width="5.1999998" />
    <rect
       id="rect3305"
       style="fill:#ffffff"
       y="431"
       x="275.79999"
       height="5.1999998"
       width="5.1999998" />
    <rect
       id="rect3307"
       style="fill:#ffffff"
       y="431"
       x="286.20001"
       height="5.1999998"
       width="5.1999998" />
  </g>
  <path
     inkscape:connector-curvature="0"
     id="path3309"
     style="fill:#ff0000"
     d="m 312.01052,449.88414 -0.1,16.1 -38,-8.6 z" />
</svg>
