<?xml version="1.0" encoding="UTF-8" standalone="no"?>
<!-- Created with Inkscape (http://www.inkscape.org/) -->

<svg
   xmlns:dc="http://purl.org/dc/elements/1.1/"
   xmlns:cc="http://creativecommons.org/ns#"
   xmlns:rdf="http://www.w3.org/1999/02/22-rdf-syntax-ns#"
   xmlns:svg="http://www.w3.org/2000/svg"
   xmlns="http://www.w3.org/2000/svg"
   xmlns:xlink="http://www.w3.org/1999/xlink"
   xmlns:sodipodi="http://sodipodi.sourceforge.net/DTD/sodipodi-0.dtd"
   xmlns:inkscape="http://www.inkscape.org/namespaces/inkscape"
   width="1502.4491"
   height="552.23907"
   id="svg3942"
   sodipodi:version="0.32"
   inkscape:version="0.92.4 (unknown)"
   version="1.0"
   sodipodi:docname="Formula1_Circuit_Catalunya.svg"
   inkscape:output_extension="org.inkscape.output.svg.inkscape"
   inkscape:export-filename="D:\Images\Race Tracks\Catalunya.png"
   inkscape:export-xdpi="90.015755"
   inkscape:export-ydpi="90.015755"
   viewBox="0 0 1408.546 517.72412">
  <defs
     id="defs3944">
    <clipPath
       clipPathUnits="userSpaceOnUse"
       id="clipPath9724">
      <path
         id="path9726"
         d="m 727.23942,720.30758 c 606.12058,0 1212.24098,0 1818.36158,0 0,254.58524 0,509.17032 0,763.75552 -606.1206,0 -1212.241,0 -1818.36158,0 0,-254.5852 0,-509.17028 0,-763.75552 z"
         style="fill:#6a6a6a;fill-opacity:1;fill-rule:nonzero;stroke:#010101;stroke-width:0.94262564;stroke-linecap:round;stroke-linejoin:round;stroke-miterlimit:4;stroke-dasharray:none;stroke-dashoffset:0;stroke-opacity:1"
         inkscape:connector-curvature="0" />
    </clipPath>
    <pattern
       patternUnits="userSpaceOnUse"
       width="18.181098"
       height="18.137641"
       patternTransform="matrix(0.1737876,0,0,0.1737876,763.47719,1693.9071)"
       id="pattern4912">
      <g
         id="g4907"
         transform="translate(-1025.5348,-1215.2814)">
        <rect
           style="opacity:1;fill:#000000;fill-opacity:1;stroke:none;stroke-width:0.5;stroke-linecap:round;stroke-linejoin:round;stroke-miterlimit:4;stroke-dasharray:none;stroke-dashoffset:0;stroke-opacity:1"
           id="rect4899"
           width="18.172573"
           height="18.095789"
           x="1025.5348"
           y="1215.2814" />
        <rect
           style="opacity:1;fill:#ffffff;fill-opacity:1;stroke:none;stroke-width:0.5;stroke-linecap:round;stroke-linejoin:round;stroke-miterlimit:4;stroke-dasharray:none;stroke-dashoffset:0;stroke-opacity:1"
           id="rect4903"
           width="9.0746527"
           height="9.0746527"
           x="1025.5348"
           y="1215.2814" />
        <rect
           style="opacity:1;fill:#ffffff;fill-opacity:1;stroke:none;stroke-width:0.5;stroke-linecap:round;stroke-linejoin:round;stroke-miterlimit:4;stroke-dasharray:none;stroke-dashoffset:0;stroke-opacity:1"
           id="rect4905"
           width="9.0746527"
           height="9.0746527"
           x="1034.6412"
           y="1224.3444" />
      </g>
    </pattern>
    <pattern
       inkscape:collect="always"
       xlink:href="#pattern4912"
       id="pattern4166"
       patternTransform="matrix(0.4562459,1.0584762e-8,-1.0584762e-8,0.4562459,1606.0059,1268.5349)" />
    <inkscape:perspective
       sodipodi:type="inkscape:persp3d"
       inkscape:vp_x="0 : 526.18108 : 1"
       inkscape:vp_y="0 : 999.99998 : 0"
       inkscape:vp_z="744.09446 : 526.18108 : 1"
       inkscape:persp3d-origin="372.04723 : 350.78738 : 1"
       id="perspective3950" />
    <inkscape:perspective
       id="perspective3959"
       inkscape:persp3d-origin="372.04723 : 350.78738 : 1"
       inkscape:vp_z="744.09446 : 526.18108 : 1"
       inkscape:vp_y="0 : 999.99998 : 0"
       inkscape:vp_x="0 : 526.18108 : 1"
       sodipodi:type="inkscape:persp3d" />
    <inkscape:perspective
       id="perspective4510"
       inkscape:persp3d-origin="372.04723 : 350.78738 : 1"
       inkscape:vp_z="744.09446 : 526.18108 : 1"
       inkscape:vp_y="0 : 999.99998 : 0"
       inkscape:vp_x="0 : 526.18108 : 1"
       sodipodi:type="inkscape:persp3d" />
    <clipPath
       clipPathUnits="userSpaceOnUse"
       id="clipPath4524">
      <rect
         style="display:inline;overflow:visible;visibility:visible;opacity:1;fill:none;fill-opacity:1;fill-rule:nonzero;stroke:#000000;stroke-width:1;stroke-linecap:butt;stroke-linejoin:round;stroke-miterlimit:4;stroke-dasharray:none;stroke-dashoffset:0;stroke-opacity:1;marker:none;marker-start:none;marker-mid:none;marker-end:none;enable-background:accumulate"
         id="rect4526"
         width="606.55634"
         height="610.14545"
         x="1330.3564"
         y="915.97675" />
    </clipPath>
  </defs>
  <sodipodi:namedview
     id="base"
     pagecolor="#ffffff"
     bordercolor="#ffffff"
     borderopacity="0.0"
     inkscape:pageopacity="0.0"
     inkscape:pageshadow="0"
     inkscape:zoom="0.52348746"
     inkscape:cx="821.80925"
     inkscape:cy="164.21139"
     inkscape:document-units="px"
     inkscape:current-layer="layer1"
     showgrid="false"
     inkscape:window-width="1338"
     inkscape:window-height="712"
     inkscape:window-x="11"
     inkscape:window-y="39"
     inkscape:window-maximized="1" />
  <metadata
     id="metadata3947">
    <rdf:RDF>
      <cc:Work
         rdf:about="">
        <dc:format>image/svg+xml</dc:format>
        <dc:type
           rdf:resource="http://purl.org/dc/dcmitype/StillImage" />
        <cc:license
           rdf:resource="http://creativecommons.org/licenses/by-sa/3.0/" />
        <dc:title>Track map for Catalunya</dc:title>
        <dc:date>8-5-2008</dc:date>
        <dc:creator>
          <cc:Agent>
            <dc:title>Will Pittneger</dc:title>
          </cc:Agent>
        </dc:creator>
        <dc:publisher>
          <cc:Agent>
            <dc:title>Will Pittenger</dc:title>
          </cc:Agent>
        </dc:publisher>
        <dc:subject>
          <rdf:Bag>
            <rdf:li>Catalunya</rdf:li>
            <rdf:li>Racing</rdf:li>
            <rdf:li>Formula 1</rdf:li>
            <rdf:li>road course</rdf:li>
            <rdf:li>Elf</rdf:li>
            <rdf:li>Renault</rdf:li>
            <rdf:li>Repsol</rdf:li>
            <rdf:li>Seat</rdf:li>
            <rdf:li>Campsa</rdf:li>
            <rdf:li>La Caixa</rdf:li>
            <rdf:li>Banc De Sabadell</rdf:li>
            <rdf:li>Europcar</rdf:li>
            <rdf:li>New Holland</rdf:li>
          </rdf:Bag>
        </dc:subject>
        <dc:description>Created in Inkscape with data from Google Earth.</dc:description>
      </cc:Work>
      <cc:License
         rdf:about="http://creativecommons.org/licenses/by-sa/3.0/">
        <cc:permits
           rdf:resource="http://creativecommons.org/ns#Reproduction" />
        <cc:permits
           rdf:resource="http://creativecommons.org/ns#Distribution" />
        <cc:requires
           rdf:resource="http://creativecommons.org/ns#Notice" />
        <cc:requires
           rdf:resource="http://creativecommons.org/ns#Attribution" />
        <cc:permits
           rdf:resource="http://creativecommons.org/ns#DerivativeWorks" />
        <cc:requires
           rdf:resource="http://creativecommons.org/ns#ShareAlike" />
      </cc:License>
    </rdf:RDF>
  </metadata>
  <g
     inkscape:label="Layer 1"
     inkscape:groupmode="layer"
     id="layer1"
     transform="translate(-930.50284,-997.61967)">
    <path
       style="fill:none;fill-rule:evenodd;stroke:#999999;stroke-width:5.79999971;stroke-linecap:butt;stroke-linejoin:round;stroke-miterlimit:4;stroke-dasharray:none;stroke-opacity:1"
       d="m 2326.6053,1287.0867 c -0.5982,20.8491 -3.8611,40.3551 -8.121,60.3415 -2.3699,11.1191 -6.3957,18.513 -11.297,28.5503 -4.4702,9.1543 -11.771,17.3681 -18.9923,24.675 -5.3904,5.4543 -11.2807,10.4848 -17.7959,14.6555 -6.6448,4.2537 -14.2323,8.5122 -21.6841,10.6177 -10.5435,2.9791 -22.1866,3.2323 -33.3486,3.5891 -27.8195,0.8894 -56.3631,1.8596 -83.5959,0.1496 l -57.9137,-0.6571 c -44.5277,0.7503 -20.4698,0.2507 -45.1034,0.1746 -10.6296,-0.033 -24.3442,0.4778 -35.0247,0.4938 -122.1657,0.1833 -244.6735,-1.8348 -366.8237,-0.7591 -42.0008,0.3699 -97.7232,4.9426 -139.6912,6.8336 -26.6235,1.1996 -26.4282,2.3712 -53.0343,3.8882 -18.8557,1.0751 -50.6784,4.5549 -69.5959,4.3928"
       id="path4486"
       sodipodi:nodetypes="cssssssccssssss"
       inkscape:connector-curvature="0" />
    <path
       id="path3965"
       style="fill:none;fill-rule:evenodd;stroke:#000000;stroke-width:10;stroke-linecap:butt;stroke-linejoin:round;stroke-miterlimit:4;stroke-dasharray:none;stroke-opacity:1"
       d="m 2329.9462,1281.1143 c 0.1344,-9.5912 -12.401,-18.3662 -22.599,-18.7434 -15.6867,-0.1243 -23.8783,-4.2575 -22.6293,-16.9191 3.6718,-37.2241 8.9099,-73.8926 11.209,-111.2433 1.0905,-17.7169 -20.6178,-22.7019 -34.6864,-28.2178 -39.6019,-15.5266 -74.7244,-26.2131 -117.3569,-41.6649 -10.2079,-3.6998 -22.1332,-6.7828 -32.3018,-4.7854 -12.1635,2.3893 -26.5016,10.3513 -34.2715,19.6373 -8.5804,10.2546 -15.0031,24.6764 -17.3173,38.5615 -1.6737,10.0422 2.4198,23.317 7.0455,31.5284 10.6807,18.9601 29.3255,26.002 48.1324,32.3019 17.1843,5.7564 25.9509,8.5317 29.9091,19.1418 11.7246,31.4286 20.8665,61.8762 33.6434,97.8027 7.6939,21.6342 -15.2635,35.0553 -33.4506,24.4918 -137.8729,-80.08 -262.7947,-157.2138 -400.9746,-241.9309 -18.2817,-11.2084 -38.7348,-21.1261 -59.8182,-23.9273 -13.0682,-1.7363 -29.4652,-1.1711 -41.2444,1.9096 -14.142,3.6987 -31.1426,12.9868 -40.749,24.7733 -46.6227,57.2038 -70.6415,100.2738 -112.2881,161.8948 -9.3222,13.7932 -14.7495,31.4645 -12.6894,47.106 5.2216,39.6454 -11.3078,67.8579 -37.8856,69.3891 -43.8466,2.5262 -72.7239,-1.1163 -113.2792,-2.3326 -26.9443,-0.8081 -52.8936,-11.4068 -76.9177,-24.2051 -46.7414,-24.9004 -88.4504,-49.3389 -131.9504,-78.0415 -11.4789,-7.5741 -21.5062,-19.7606 -24.2051,-31.4559 -2.0865,-9.0417 2.9848,-24.5291 9.8487,-31.601 6.2961,-6.4869 16.4677,-9.739 26.2475,-9.4983 69.9924,1.7221 131.0662,0.8619 202.8738,-2.3202 14.9265,-0.6615 35.9825,-11.8782 47.021,-21.6071 12.49,-11.0081 22.571,-21.5836 29.4862,-36.797 5.0484,-11.1066 8.8831,-25.2522 7.2507,-37.0873 -1.5579,-11.2946 -9.4671,-27.2113 -16.3987,-34.8397 -8.2179,-9.044 -20.4347,-16.6557 -33.353,-16.8216 -89.187,-1.1452 -175.0872,-1.3183 -263.6105,1.2689 -21.9192,0.6376 -52.4477,10.0984 -71.8669,19.9878 -23.6499,12.0439 -43.63346,25.4713 -61.57021,44.5433 -13.56749,14.4262 -23.40711,34.8246 -28.71273,53.8364 -4.26529,15.284 -5.09693,33.106 -2.53787,49.0509 2.62519,16.3569 8.88366,28.3511 17.24464,42.3558 7.59054,12.7141 19.0097,26.0787 32.30182,32.7248 28.18185,14.0909 60.52345,23.3211 89.58205,36.6767 37.2176,17.1055 46.8327,37.6722 46.3804,77.2681 -0.2743,24.0146 5.3497,49.5266 51.5163,50.6703 231.1479,5.7262 460.0563,0.2639 691.353,0.7734 130.8027,0.2881 239.6066,0.8671 367.8745,0.7733 34.3163,-0.026 59.9072,-21.683 72.2421,-36.1086 11.1936,-13.0908 19.4806,-34.9601 20.3382,-52.7852 1.2581,-26.1511 2.2487,-51.2104 3.1641,-75.5347 z"
       sodipodi:nodetypes="ccssssssssssssssssssssssssssssssscsssssssssscssc"
       inkscape:connector-curvature="0" />
    <g
       id="g4425"
       transform="matrix(0.3100541,-1.3229204,1.3229204,0.3100541,-553.09803,3071.9394)">
      <path
         transform="matrix(-0.500919,0.1152259,0.34924,1.5182438,1918.238,-810.87292)"
         d="m 1695.937,1398.5206 -24.4812,0 12.2406,-21.2013 z"
         inkscape:randomized="0"
         inkscape:rounded="0"
         inkscape:flatsided="true"
         sodipodi:arg2="1.5707963"
         sodipodi:arg1="0.52359878"
         sodipodi:r2="7.0671172"
         sodipodi:r1="14.134234"
         sodipodi:cy="1391.4535"
         sodipodi:cx="1683.6964"
         sodipodi:sides="3"
         id="path3463"
         style="opacity:1;fill:#ff0000;fill-opacity:1;stroke:#ffffff;stroke-width:0.61682928;stroke-linecap:round;stroke-linejoin:miter;stroke-miterlimit:4;stroke-dasharray:none;stroke-dashoffset:0;stroke-opacity:1"
         sodipodi:type="star" />
      <rect
         ry="0"
         transform="matrix(0.2205973,0.975365,0.975365,-0.2205973,0,0)"
         y="1189.9088"
         x="1763.3485"
         height="45.402771"
         width="12.409092"
         id="rect3457"
         style="display:inline;opacity:1;fill:url(#pattern4166);fill-opacity:1;stroke:#000000;stroke-width:0.55197024;stroke-linecap:round;stroke-linejoin:round;stroke-miterlimit:4;stroke-dasharray:none;stroke-dashoffset:0;stroke-opacity:1" />
    </g>
  </g>
</svg>
