<?xml version="1.0" encoding="UTF-8" standalone="no"?>
<svg
   xmlns:dc="http://purl.org/dc/elements/1.1/"
   xmlns:cc="http://creativecommons.org/ns#"
   xmlns:rdf="http://www.w3.org/1999/02/22-rdf-syntax-ns#"
   xmlns:svg="http://www.w3.org/2000/svg"
   xmlns="http://www.w3.org/2000/svg"
   xmlns:sodipodi="http://sodipodi.sourceforge.net/DTD/sodipodi-0.dtd"
   xmlns:inkscape="http://www.inkscape.org/namespaces/inkscape"
   id="510e0202-a7ad-4147-b5e3-65862e123c39"
   data-name="Capa 1"
   viewBox="0 0 691.97 510.23"
   version="1.1"
   sodipodi:docname="Formula1_Circuit_Baku.svg"
   inkscape:version="0.92.4 (unknown)">
  <metadata
     id="metadata682">
    <rdf:RDF>
      <cc:Work
         rdf:about="">
        <dc:format>image/svg+xml</dc:format>
        <dc:type
           rdf:resource="http://purl.org/dc/dcmitype/StillImage" />
      </cc:Work>
    </rdf:RDF>
  </metadata>
  <defs
     id="defs680" />
  <sodipodi:namedview
     pagecolor="#ffffff"
     bordercolor="#666666"
     borderopacity="1"
     objecttolerance="10"
     gridtolerance="10"
     guidetolerance="10"
     inkscape:pageopacity="0"
     inkscape:pageshadow="2"
     inkscape:window-width="1338"
     inkscape:window-height="712"
     id="namedview678"
     showgrid="false"
     inkscape:zoom="1.042667"
     inkscape:cx="333.03742"
     inkscape:cy="255.11501"
     inkscape:window-x="11"
     inkscape:window-y="39"
     inkscape:window-maximized="1"
     inkscape:current-layer="510e0202-a7ad-4147-b5e3-65862e123c39" />
  <title
     id="title457">Mesa de trabajo 1</title>
  <path
     d="M637.58,66.54c2.89,5.23,2.78,20.18,4.83,24.78,9.28,20.86,8.86,22.11,6.35,23.17-63,26.59-80.65,34-86.32,36.38-7.41,3.16-6.18,5.54-10.29,7.39-10.64,4.82-50.58,19.45-77.82,38"
     fill="none"
     stroke="#000"
     stroke-miterlimit="10"
     stroke-width="3.18"
     id="path461"
     style="stroke:#a6a6a6;stroke-opacity:1" />
  <path
     d="M161.69,425.52c-9.75,8.68-21.7,44.2-23.19,49.24-2.46,8.33-8.39,9.78-10.82,9.07-5.91-1.72-82.78-41.9-86.7-43.8-4.21-2-5.39-1-8.71-3.4-2.89-2.1.41-11.35-.31-16.93-.35-2.74-6-46.79-3.41-58.08,1.37-6,13.76-57.53,22.82-63.6C72.2,284,128.63,254.49,154,248.76c8.4-1.89,7,15.92,12.72,18.42,6.19,2.71,8.47-.8,12.79-.38,6.32.61,3.92.62,9.54,4.55,3.28,2.28,4.92-4.71,7.58,1.64,3.86,9.23,15.64,55.07,18.91,54.67,7-.86.64-6,9.25-13.64,9.29-8.21,6.75-4.55,12.63-5.81,4-.85,62.69-47.81,71.25-51.9,4.71-2.26-2.45-10.05-2.17-13,.41-4.12,1-4.3,5.51-7,11.78-7.2,19.15-12.63,30.94-19.84,2.27-1.39,6.39-5.25,10.91-7.45,17.16-8.36,99.4-45.25,109.6-50.24,3.66-1.79,7.5-3.67,6.92-7.64s-20.84-45.76-23.7-52c-1.19-2.59-3.3-5.65-2.17-8.27,1.42-3.33,3.05-2.82,7.81-4.94,48.11-21.45,100.7-42.61,150.19-62.49,4.31-1.73,10.45-5,13-4.17,4.34,1.46,4.34,3.26,6.57,8.28,33,74.57,43.06,90.23,37.52,92.6-28.75,12.29-190.23,80.3-297.43,124.54-11.15,4.6-36.32,16.13-39.42,18.11-12.25,7.84-95,69.79-96.91,73.54-2.94,5.87-10.54,41-16.31,44.6Z"
     fill="none"
     stroke="#000"
     stroke-miterlimit="10"
     stroke-width="8.24"
     id="path459" />
  <path
     d="M591.36,170.17l5.69,12.55,20.07-16.5Z"
     fill="red"
     id="path463" />
  <g
     id="g699">
    <path
       id="path465"
       d="m 605.47,128.92 3.51,8.25 8.24,-3.51 -3.51,-8.24 z"
       inkscape:connector-curvature="0" />
    <path
       id="path467"
       d="m 613.71,125.42 3.51,8.24 8.24,-3.51 -3.5,-8.24 z"
       inkscape:connector-curvature="0"
       style="fill:#ffffff" />
    <path
       id="path469"
       d="m 622,121.91 3.5,8.24 8.24,-3.51 -3.5,-8.24 z"
       inkscape:connector-curvature="0" />
    <path
       id="path471"
       d="m 609,137.09 3.51,8.24 8.24,-3.5 -3.51,-8.24 z"
       inkscape:connector-curvature="0"
       style="fill:#ffffff" />
    <path
       id="path473"
       d="m 625.43,130.08 3.51,8.24 8.24,-3.51 -3.51,-8.24 z"
       inkscape:connector-curvature="0"
       style="fill:#ffffff" />
    <path
       id="path475"
       d="m 617.16,133.51 3.51,8.24 8.24,-3.5 -3.51,-8.25 z"
       inkscape:connector-curvature="0" />
    <path
       id="path477"
       d="m 612.43,145.26 3.5,8.24 8.24,-3.5 -3.5,-8.25 z"
       inkscape:connector-curvature="0" />
    <path
       id="path479"
       d="m 620.67,141.75 3.5,8.25 8.25,-3.51 -3.51,-8.24 z"
       inkscape:connector-curvature="0"
       style="fill:#ffffff" />
    <path
       id="path481"
       d="m 628.91,138.25 3.51,8.24 8.24,-3.51 -3.51,-8.24 z"
       inkscape:connector-curvature="0" />
    <path
       id="path483"
       d="m 615.9,153.43 3.51,8.24 8.24,-3.51 -3.51,-8.24 z"
       inkscape:connector-curvature="0"
       style="fill:#ffffff" />
    <path
       id="path485"
       d="m 632.38,146.42 3.51,8.24 8.24,-3.51 -3.5,-8.24 z"
       inkscape:connector-curvature="0"
       style="fill:#ffffff" />
    <path
       id="path487"
       d="m 624.11,149.85 3.51,8.24 8.24,-3.51 -3.51,-8.24 z"
       inkscape:connector-curvature="0" />
    <path
       id="path489"
       d="m 619,161.58 3.51,8.24 8.24,-3.51 -3.51,-8.24 z"
       inkscape:connector-curvature="0" />
    <path
       id="path491"
       d="m 627.27,158.07 3.51,8.24 8.22,-3.51 -3.51,-8.24 z"
       inkscape:connector-curvature="0"
       style="fill:#ffffff" />
    <path
       id="path493"
       d="m 635.51,154.56 3.49,8.24 8.24,-3.5 -3.51,-8.24 z"
       inkscape:connector-curvature="0" />
  </g>
</svg>
