<?xml version="1.0" encoding="UTF-8" standalone="no"?>
<!-- Created with Inkscape (http://www.inkscape.org/) -->

<svg
   xmlns:dc="http://purl.org/dc/elements/1.1/"
   xmlns:cc="http://creativecommons.org/ns#"
   xmlns:rdf="http://www.w3.org/1999/02/22-rdf-syntax-ns#"
   xmlns:svg="http://www.w3.org/2000/svg"
   xmlns="http://www.w3.org/2000/svg"
   xmlns:sodipodi="http://sodipodi.sourceforge.net/DTD/sodipodi-0.dtd"
   xmlns:inkscape="http://www.inkscape.org/namespaces/inkscape"
   width="297mm"
   height="210mm"
   id="svg2985"
   version="1.1"
   inkscape:version="0.92.4 (unknown)"
   sodipodi:docname="Hockenheim2012.svg"
   viewBox="0 0 1052.3622 744.09449">
  <defs
     id="defs2987" />
  <sodipodi:namedview
     inkscape:document-units="mm"
     pagecolor="#ffffff"
     bordercolor="#666666"
     borderopacity="1.0"
     inkscape:pageopacity="0.0"
     inkscape:pageshadow="2"
     inkscape:zoom="2.8284271"
     inkscape:cx="182.67783"
     inkscape:cy="318.38897"
     inkscape:current-layer="layer1"
     id="namedview2989"
     showgrid="false"
     inkscape:window-width="1338"
     inkscape:window-height="712"
     inkscape:window-x="11"
     inkscape:window-y="39"
     inkscape:window-maximized="1" />
  <metadata
     id="metadata2991">
    <rdf:RDF>
      <cc:Work
         rdf:about="">
        <dc:format>image/svg+xml</dc:format>
        <dc:type
           rdf:resource="http://purl.org/dc/dcmitype/StillImage" />
        <dc:title />
      </cc:Work>
    </rdf:RDF>
  </metadata>
  <g
     inkscape:label="Layer 1"
     inkscape:groupmode="layer"
     id="layer1">
    <path
       style="fill:none;stroke:#969696;stroke-width:3.85406256;stroke-linecap:butt;stroke-linejoin:miter;stroke-miterlimit:4;stroke-dasharray:none;stroke-opacity:1"
       d="m 294.57623,619.59047 -36.42981,19.25031 c 0,0 -5.19254,2.71333 -8.55059,3.46095 -3.35805,0.74762 -8.01298,0.90791 -11.40079,0.61076 -3.38781,-0.29715 -5.90369,-0.91329 -8.75418,-2.03586 -2.85049,-1.12257 -5.87681,-3.01454 -8.14342,-4.68246 -2.26661,-1.66792 -4.06965,-3.21461 -5.49681,-5.08964 -1.42716,-1.87503 -3.05378,-5.90398 -3.05378,-5.90398 l -22.80158,-46.01032 c 0,0 -4.27757,-6.81867 -7.93983,-12.62231 -3.66226,-5.80364 -10.01247,-15.77605 -14.0474,-22.19082 -4.03493,-6.41477 -10.17928,-16.28684 -10.17928,-16.28684 L 120.31903,448.8955 83.877227,369.49716 c 0,0 -3.185032,-9.53108 -4.478881,-15.26891 -1.293849,-5.73783 -2.955445,-14.71296 -3.053783,-19.13704 -0.09834,-4.42408 -0.646629,-0.67468 0.814342,-7.12549 1.460971,-6.45081 10.586447,-30.74142 10.586447,-30.74142 l 8.550591,-15.67608 24.633847,-37.45973"
       id="path3796"
       inkscape:connector-curvature="0"
       sodipodi:nodetypes="cczzzzzcczzccczzzccc" />
    <path
       style="fill:none;stroke:#000000;stroke-width:7.08661413;stroke-linecap:butt;stroke-linejoin:miter;stroke-miterlimit:4;stroke-dasharray:none;stroke-opacity:1"
       d="M 133.75567,497.34886 97.517456,419.57919 61.482822,351.9888 c 0,0 -0.523721,-2.72449 -0.407171,-4.27529 0.11655,-1.5508 1.221513,-4.88605 1.221513,-4.88605 l 5.293223,-10.79003 22.19082,-48.24977 c 0,0 5.541536,-8.56169 9.772104,-15.4725 4.230569,-6.91081 15.879669,-20.56213 15.879669,-20.56213 l 24.64832,-30.39811 56.63169,-59.27831 73.24139,-77.874451 10.24913,-9.757635 c 0,0 3.64678,-2.697426 5.58114,-3.018853 1.93436,-0.321427 4.61697,-0.379391 7.05563,0.610756 2.43866,0.990147 4.96911,3.293484 7.73625,6.395479 2.76714,3.101995 5.89056,7.444039 7.65192,11.38632 1.76136,3.942281 2.3982,7.430078 3.05378,10.670774 0.65558,3.240696 0.66177,3.496294 1.01793,8.95776 0.35616,5.46147 -0.52848,18.14433 0.40717,23.81951 0.93565,5.67518 1.73598,7.06512 3.25737,10.17927 1.52139,3.11415 1.80164,4.21378 5.70039,8.34701 3.89875,4.13323 8.34864,7.29693 18.98285,14.65815 10.63421,7.36122 45.96093,27.48405 45.96093,27.48405 0,0 28.50948,16.35209 43.16013,23.20874 14.65065,6.85665 27.39797,11.84905 44.58522,17.91553 17.18725,6.06648 42.8437,14.02719 58.63263,17.91552 15.78893,3.88833 24.21971,4.90025 35.62746,6.71832 11.40775,1.81807 19.7098,3.13348 32.77726,4.2753 13.06746,1.14182 32.01854,2.00283 45.60316,2.03585 13.58462,0.033 23.52116,-0.15952 35.83104,-1.4251 12.30988,-1.26558 26.19009,-3.79201 37.86691,-6.31115 11.67682,-2.51914 32.16651,-8.55059 32.16651,-8.55059 l 143.93495,-52.93223 71.66209,-28.0948 19.34063,-6.9219 c 0,0 4.12196,-0.36237 5.70039,0.20358 1.57843,0.56595 2.42679,1.41737 3.46095,2.64661 1.03416,1.22924 2.10956,3.15882 2.44303,4.68247 0.33347,1.52365 0.23969,2.72951 -0.20358,4.07171 -0.44327,1.3422 -2.44303,3.66454 -2.44303,3.66454 l -65.35095,42.95654 -137.01304,90.39196 c 0,0 -12.07725,8.0734 -16.49043,10.38286 -4.41318,2.30946 -6.53477,3.29775 -9.56851,4.07171 -3.03374,0.77396 -4.49784,0.78719 -8.34701,0.81435 -3.84917,0.0272 -14.65816,-1.22152 -14.65816,-1.22152 L 598.33779,299.05657 c 0,0 -5.56008,-0.75562 -7.32908,-0.20358 -1.769,0.55204 -2.15821,1.07477 -3.05378,2.23944 -0.89557,1.16467 -1.83227,4.68247 -1.83227,4.68247 0,0 -1.76492,6.33218 -2.23944,10.58644 -0.47452,4.25426 -0.45901,10.16935 -0.20358,14.86174 0.25543,4.69239 1.62868,13.23306 1.62868,13.23306 0,0 1.85438,11.45759 3.46095,16.08326 1.60657,4.62567 3.12981,7.22052 5.7004,11.60437 2.57059,4.38385 9.97569,14.45457 9.97569,14.45457 0,0 2.69527,3.78367 3.66454,6.31115 0.96927,2.52748 1.65484,5.97581 1.83226,8.75418 0.17742,2.77837 0.14457,4.18274 -0.61075,7.73625 -0.75532,3.55351 -2.50772,9.18807 -4.68247,13.23305 -2.17475,4.04498 -5.28704,8.44543 -8.71925,12.51752 -3.43221,4.07209 -7.41694,8.73524 -12.04647,12.86081 -4.62953,4.12557 -17.94446,13.2126 -17.94446,13.2126 l -94.63832,61.34909 -64.17883,40.63278 c 0,0 -9.40117,3.293 -14.81235,4.38008 -5.41118,1.08708 -11.2619,0.93527 -16.28684,0.40717 -5.02494,-0.5281 -9.18725,-1.55757 -13.64023,-3.25737 -4.45298,-1.6998 -9.38357,-4.4636 -12.82588,-6.9219 -3.44231,-2.4583 -7.93984,-7.32908 -7.93984,-7.32908 L 248.37431,439.32699 c 0,0 -6.96867,-6.15373 -10.58644,-7.73625 -3.61777,-1.58252 -7.08161,-2.12065 -10.38286,-2.03586 -3.30125,0.0848 -6.20784,1.02295 -8.95777,2.23944 -2.74993,1.21649 -5.28156,2.97861 -7.32907,4.88605 -2.04751,1.90744 -3.44447,3.59019 -4.88606,6.31115 -1.44159,2.72096 -2.71634,6.8132 -3.25736,9.97569 -0.54102,3.16249 -0.20359,8.75418 -0.20359,8.75418 l 14.0474,49.06411 c 0,0 3.61038,8.28038 6.73879,11.60437 3.1284,3.32399 5.43579,4.80502 11.78749,8.34701 6.3517,3.54199 20.15797,7.45131 26.87329,11.40078 6.71532,3.94947 6.22161,3.27066 13.26798,11.07795 7.04637,7.80729 24.17746,32.93311 25.61685,37.98616 1.43939,5.05305 1.94926,8.13703 1.66361,12.38379 -0.28564,4.24675 -0.90818,7.73983 -4.27529,12.82588 -3.3671,5.08605 -16.72894,14.69309 -16.72894,14.69309 0,0 -31.96775,20.48547 -35.42388,21.78365 -3.45613,1.29818 -9.40322,1.63732 -13.23306,1.62868 -3.82984,-0.009 -6.13649,-0.14878 -9.56852,-1.22151 -3.43203,-1.07273 -7.09179,-2.96483 -10.58644,-5.49681 -3.49465,-2.53198 -9.82332,-9.08684 -14.87022,-16.96993 -5.04689,-7.8831 -56.18112,-116.58216 -56.18112,-116.58216 z"
       id="path3016"
       inkscape:connector-curvature="0"
       sodipodi:nodetypes="ccczccczccccczzzzzzzzzzczzzzzzzzcccczzzzccczzzcczzczzczzczzzzzzccczzzzcczzzzzzcczzzzzzzczzzzzcc" />
    <path
       style="fill:#ff0000;fill-opacity:1;stroke:#ff0000;stroke-width:1px;stroke-linecap:butt;stroke-linejoin:miter;stroke-opacity:1"
       d="M 95.993666,513.63167 111.76844,506.30662 88.897975,477.70256 Z"
       id="path4141"
       inkscape:connector-curvature="0"
       sodipodi:nodetypes="cccc"
       inkscape:transform-center-x="-5.1544238"
       inkscape:transform-center-y="14.379307" />
    <g
       transform="matrix(0.06641483,0.93514454,-0.93514454,0.06641483,220.35079,-123.69099)"
       id="g699"
       inkscape:transform-center-x="-40.86525"
       inkscape:transform-center-y="-46.816652">
      <path
         id="path465"
         d="m 605.47,128.92 3.51,8.25 8.24,-3.51 -3.51,-8.24 z"
         inkscape:connector-curvature="0" />
      <path
         id="path467"
         d="m 613.71,125.42 3.51,8.24 8.24,-3.51 -3.5,-8.24 z"
         inkscape:connector-curvature="0"
         style="fill:#ffffff" />
      <path
         id="path469"
         d="m 622,121.91 3.5,8.24 8.24,-3.51 -3.5,-8.24 z"
         inkscape:connector-curvature="0" />
      <path
         id="path471"
         d="m 609,137.09 3.51,8.24 8.24,-3.5 -3.51,-8.24 z"
         inkscape:connector-curvature="0"
         style="fill:#ffffff" />
      <path
         id="path473"
         d="m 625.43,130.08 3.51,8.24 8.24,-3.51 -3.51,-8.24 z"
         inkscape:connector-curvature="0"
         style="fill:#ffffff" />
      <path
         id="path475"
         d="m 617.16,133.51 3.51,8.24 8.24,-3.5 -3.51,-8.25 z"
         inkscape:connector-curvature="0" />
      <path
         id="path477"
         d="m 612.43,145.26 3.5,8.24 8.24,-3.5 -3.5,-8.25 z"
         inkscape:connector-curvature="0" />
      <path
         id="path479"
         d="m 620.67,141.75 3.5,8.25 8.25,-3.51 -3.51,-8.24 z"
         inkscape:connector-curvature="0"
         style="fill:#ffffff" />
      <path
         id="path481"
         d="m 628.91,138.25 3.51,8.24 8.24,-3.51 -3.51,-8.24 z"
         inkscape:connector-curvature="0" />
      <path
         id="path483"
         d="m 615.9,153.43 3.51,8.24 8.24,-3.51 -3.51,-8.24 z"
         inkscape:connector-curvature="0"
         style="fill:#ffffff" />
      <path
         id="path485"
         d="m 632.38,146.42 3.51,8.24 8.24,-3.51 -3.5,-8.24 z"
         inkscape:connector-curvature="0"
         style="fill:#ffffff" />
      <path
         id="path487"
         d="m 624.11,149.85 3.51,8.24 8.24,-3.51 -3.51,-8.24 z"
         inkscape:connector-curvature="0" />
      <path
         id="path489"
         d="m 619,161.58 3.51,8.24 8.24,-3.51 -3.51,-8.24 z"
         inkscape:connector-curvature="0" />
      <path
         id="path491"
         d="m 627.27,158.07 3.51,8.24 8.22,-3.51 -3.51,-8.24 z"
         inkscape:connector-curvature="0"
         style="fill:#ffffff" />
      <path
         id="path493"
         d="m 635.51,154.56 3.49,8.24 8.24,-3.5 -3.51,-8.24 z"
         inkscape:connector-curvature="0" />
    </g>
  </g>
</svg>
