<?xml version="1.0" encoding="UTF-8" standalone="no"?>
<!-- Created with Inkscape (http://www.inkscape.org/) -->

<svg
   xmlns:dc="http://purl.org/dc/elements/1.1/"
   xmlns:cc="http://creativecommons.org/ns#"
   xmlns:rdf="http://www.w3.org/1999/02/22-rdf-syntax-ns#"
   xmlns:svg="http://www.w3.org/2000/svg"
   xmlns="http://www.w3.org/2000/svg"
   xmlns:xlink="http://www.w3.org/1999/xlink"
   xmlns:sodipodi="http://sodipodi.sourceforge.net/DTD/sodipodi-0.dtd"
   xmlns:inkscape="http://www.inkscape.org/namespaces/inkscape"
   width="1287.5675"
   height="815.51233"
   id="svg2816"
   version="1.1"
   inkscape:version="0.92.4 (unknown)"
   sodipodi:docname="Shanghai_International_Racing_Circuit_track_map.svg"
   inkscape:export-filename="E:\Images\Race Tracks\Shanghai International Racing Circuit track map.png"
   inkscape:export-xdpi="90"
   inkscape:export-ydpi="90"
   viewBox="0 0 1207.0945 764.54279">
  <title
     id="title4449">Track map of Shanghai International Racing Circuit</title>
  <defs
     id="defs2818">
    <inkscape:perspective
       sodipodi:type="inkscape:persp3d"
       inkscape:vp_x="0 : 526.18108 : 1"
       inkscape:vp_y="0 : 999.99998 : 0"
       inkscape:vp_z="744.09445 : 526.18108 : 1"
       inkscape:persp3d-origin="372.04723 : 350.78738 : 1"
       id="perspective2824" />
    <inkscape:perspective
       id="perspective2834"
       inkscape:persp3d-origin="0.49999999 : 0.33333332 : 1"
       inkscape:vp_z="0.99999997 : 0.49999999 : 1"
       inkscape:vp_y="0 : 999.99998 : 0"
       inkscape:vp_x="0 : 0.49999999 : 1"
       sodipodi:type="inkscape:persp3d" />
    <inkscape:perspective
       id="perspective3896"
       inkscape:persp3d-origin="0.49999999 : 0.33333332 : 1"
       inkscape:vp_z="0.99999997 : 0.49999999 : 1"
       inkscape:vp_y="0 : 999.99998 : 0"
       inkscape:vp_x="0 : 0.49999999 : 1"
       sodipodi:type="inkscape:persp3d" />
    <clipPath
       clipPathUnits="userSpaceOnUse"
       id="clipPath9716">
      <path
         id="path9718"
         d="M 871.13547,932.36346 C 1314.8756,1345.252 1758.6155,1758.1404 2202.3556,2171.029 2375.7787,1984.6474 2549.2018,1798.266 2722.6249,1611.8845 2278.8848,1198.996 1835.1448,786.10758 1391.4047,373.21904 1217.9816,559.60052 1044.5586,745.98194 871.13547,932.36346 Z"
         style="fill:#6a6a6a;fill-opacity:1;fill-rule:nonzero;stroke:#010101;stroke-width:0.9426257;stroke-linecap:round;stroke-linejoin:round;stroke-miterlimit:4;stroke-dasharray:none;stroke-dashoffset:0;stroke-opacity:1"
         inkscape:connector-curvature="0" />
    </clipPath>
    <clipPath
       clipPathUnits="userSpaceOnUse"
       id="clipPath3494">
      <rect
         style="fill:#006a00;fill-opacity:1;fill-rule:nonzero;stroke:none"
         id="rect3496"
         width="2168.1926"
         height="1468.4177"
         x="-4232.8457"
         y="-2372.1296"
         transform="matrix(-0.9472965,-0.3203582,0.9519016,-0.3064038,0,0)" />
    </clipPath>
    <pattern
       inkscape:collect="always"
       xlink:href="#pattern4256"
       id="pattern4264"
       patternTransform="matrix(-0.7760302,9.7935943e-4,-9.7935943e-4,-0.7760302,-1599.8308,380.49)" />
    <pattern
       patternUnits="userSpaceOnUse"
       width="10.793857"
       height="10.773841"
       patternTransform="matrix(-0.5630234,-0.534067,0.534067,-0.5630234,1593.7246,910.57043)"
       id="pattern4256">
      <g
         id="g4248"
         transform="matrix(0.5878912,6.0987118e-3,-6.0987118e-3,0.5878912,-595.3809,-720.7077)">
        <rect
           style="opacity:1;fill:black;fill-opacity:1;stroke:none;stroke-width:0.5;stroke-linecap:round;stroke-linejoin:round;stroke-miterlimit:4;stroke-dasharray:none;stroke-dashoffset:0;stroke-opacity:1"
           id="rect4250"
           width="18.172573"
           height="18.095789"
           x="1025.5348"
           y="1215.2814" />
        <rect
           style="opacity:1;fill:white;fill-opacity:1;stroke:none;stroke-width:0.5;stroke-linecap:round;stroke-linejoin:round;stroke-miterlimit:4;stroke-dasharray:none;stroke-dashoffset:0;stroke-opacity:1"
           id="rect4252"
           width="9.0746527"
           height="9.0746527"
           x="1025.5348"
           y="1215.2814" />
        <rect
           style="opacity:1;fill:white;fill-opacity:1;stroke:none;stroke-width:0.5;stroke-linecap:round;stroke-linejoin:round;stroke-miterlimit:4;stroke-dasharray:none;stroke-dashoffset:0;stroke-opacity:1"
           id="rect4254"
           width="9.0746527"
           height="9.0746527"
           x="1034.6412"
           y="1224.3444" />
      </g>
    </pattern>
    <clipPath
       clipPathUnits="userSpaceOnUse"
       id="clipPath3490">
      <rect
         style="fill:#006a00;fill-opacity:1;fill-rule:nonzero;stroke:none"
         id="rect3492"
         width="1511.7875"
         height="1003.7479"
         x="683.1405"
         y="104.1039"
         transform="rotate(135.91755)" />
    </clipPath>
    <pattern
       patternUnits="userSpaceOnUse"
       width="10.793857"
       height="10.773841"
       patternTransform="matrix(-0.5630234,-0.534067,0.534067,-0.5630234,1593.7246,910.57043)"
       id="pattern3912">
      <g
         id="g3914"
         transform="matrix(0.5878912,6.0987118e-3,-6.0987118e-3,0.5878912,-595.3809,-720.7077)">
        <rect
           style="opacity:1;fill:black;fill-opacity:1;stroke:none;stroke-width:0.5;stroke-linecap:round;stroke-linejoin:round;stroke-miterlimit:4;stroke-dasharray:none;stroke-dashoffset:0;stroke-opacity:1"
           id="rect3916"
           width="18.172573"
           height="18.095789"
           x="1025.5348"
           y="1215.2814" />
        <rect
           style="opacity:1;fill:white;fill-opacity:1;stroke:none;stroke-width:0.5;stroke-linecap:round;stroke-linejoin:round;stroke-miterlimit:4;stroke-dasharray:none;stroke-dashoffset:0;stroke-opacity:1"
           id="rect3918"
           width="9.0746527"
           height="9.0746527"
           x="1025.5348"
           y="1215.2814" />
        <rect
           style="opacity:1;fill:white;fill-opacity:1;stroke:none;stroke-width:0.5;stroke-linecap:round;stroke-linejoin:round;stroke-miterlimit:4;stroke-dasharray:none;stroke-dashoffset:0;stroke-opacity:1"
           id="rect3920"
           width="9.0746527"
           height="9.0746527"
           x="1034.6412"
           y="1224.3444" />
      </g>
    </pattern>
    <inkscape:perspective
       id="perspective4081"
       inkscape:persp3d-origin="0.49999999 : 0.33333332 : 1"
       inkscape:vp_z="0.99999997 : 0.49999999 : 1"
       inkscape:vp_y="0 : 999.99998 : 0"
       inkscape:vp_x="0 : 0.49999999 : 1"
       sodipodi:type="inkscape:persp3d" />
    <inkscape:perspective
       id="perspective4081-9"
       inkscape:persp3d-origin="0.49999999 : 0.33333332 : 1"
       inkscape:vp_z="0.99999997 : 0.49999999 : 1"
       inkscape:vp_y="0 : 999.99998 : 0"
       inkscape:vp_x="0 : 0.49999999 : 1"
       sodipodi:type="inkscape:persp3d" />
    <inkscape:perspective
       id="perspective4081-4"
       inkscape:persp3d-origin="0.49999999 : 0.33333332 : 1"
       inkscape:vp_z="0.99999997 : 0.49999999 : 1"
       inkscape:vp_y="0 : 999.99998 : 0"
       inkscape:vp_x="0 : 0.49999999 : 1"
       sodipodi:type="inkscape:persp3d" />
    <inkscape:perspective
       id="perspective4081-1"
       inkscape:persp3d-origin="0.49999999 : 0.33333332 : 1"
       inkscape:vp_z="0.99999997 : 0.49999999 : 1"
       inkscape:vp_y="0 : 999.99998 : 0"
       inkscape:vp_x="0 : 0.49999999 : 1"
       sodipodi:type="inkscape:persp3d" />
    <inkscape:perspective
       id="perspective4081-14"
       inkscape:persp3d-origin="0.49999999 : 0.33333332 : 1"
       inkscape:vp_z="0.99999997 : 0.49999999 : 1"
       inkscape:vp_y="0 : 999.99998 : 0"
       inkscape:vp_x="0 : 0.49999999 : 1"
       sodipodi:type="inkscape:persp3d" />
    <inkscape:perspective
       id="perspective4081-6"
       inkscape:persp3d-origin="0.49999999 : 0.33333332 : 1"
       inkscape:vp_z="0.99999997 : 0.49999999 : 1"
       inkscape:vp_y="0 : 999.99998 : 0"
       inkscape:vp_x="0 : 0.49999999 : 1"
       sodipodi:type="inkscape:persp3d" />
    <inkscape:perspective
       id="perspective4081-8"
       inkscape:persp3d-origin="0.49999999 : 0.33333332 : 1"
       inkscape:vp_z="0.99999997 : 0.49999999 : 1"
       inkscape:vp_y="0 : 999.99998 : 0"
       inkscape:vp_x="0 : 0.49999999 : 1"
       sodipodi:type="inkscape:persp3d" />
    <inkscape:perspective
       id="perspective4081-43"
       inkscape:persp3d-origin="0.49999999 : 0.33333332 : 1"
       inkscape:vp_z="0.99999997 : 0.49999999 : 1"
       inkscape:vp_y="0 : 999.99998 : 0"
       inkscape:vp_x="0 : 0.49999999 : 1"
       sodipodi:type="inkscape:persp3d" />
    <inkscape:perspective
       id="perspective4081-87"
       inkscape:persp3d-origin="0.49999999 : 0.33333332 : 1"
       inkscape:vp_z="0.99999997 : 0.49999999 : 1"
       inkscape:vp_y="0 : 999.99998 : 0"
       inkscape:vp_x="0 : 0.49999999 : 1"
       sodipodi:type="inkscape:persp3d" />
    <inkscape:perspective
       id="perspective4081-86"
       inkscape:persp3d-origin="0.49999999 : 0.33333332 : 1"
       inkscape:vp_z="0.99999997 : 0.49999999 : 1"
       inkscape:vp_y="0 : 999.99998 : 0"
       inkscape:vp_x="0 : 0.49999999 : 1"
       sodipodi:type="inkscape:persp3d" />
    <inkscape:perspective
       id="perspective4247"
       inkscape:persp3d-origin="0.49999999 : 0.33333332 : 1"
       inkscape:vp_z="0.99999997 : 0.49999999 : 1"
       inkscape:vp_y="0 : 999.99998 : 0"
       inkscape:vp_x="0 : 0.49999999 : 1"
       sodipodi:type="inkscape:persp3d" />
    <inkscape:perspective
       id="perspective4247-9"
       inkscape:persp3d-origin="0.49999999 : 0.33333332 : 1"
       inkscape:vp_z="0.99999997 : 0.49999999 : 1"
       inkscape:vp_y="0 : 999.99998 : 0"
       inkscape:vp_x="0 : 0.49999999 : 1"
       sodipodi:type="inkscape:persp3d" />
    <inkscape:perspective
       id="perspective4247-3"
       inkscape:persp3d-origin="0.49999999 : 0.33333332 : 1"
       inkscape:vp_z="0.99999997 : 0.49999999 : 1"
       inkscape:vp_y="0 : 999.99998 : 0"
       inkscape:vp_x="0 : 0.49999999 : 1"
       sodipodi:type="inkscape:persp3d" />
    <inkscape:perspective
       id="perspective4247-6"
       inkscape:persp3d-origin="0.49999999 : 0.33333332 : 1"
       inkscape:vp_z="0.99999997 : 0.49999999 : 1"
       inkscape:vp_y="0 : 999.99998 : 0"
       inkscape:vp_x="0 : 0.49999999 : 1"
       sodipodi:type="inkscape:persp3d" />
    <inkscape:perspective
       id="perspective4247-63"
       inkscape:persp3d-origin="0.49999999 : 0.33333332 : 1"
       inkscape:vp_z="0.99999997 : 0.49999999 : 1"
       inkscape:vp_y="0 : 999.99998 : 0"
       inkscape:vp_x="0 : 0.49999999 : 1"
       sodipodi:type="inkscape:persp3d" />
    <inkscape:perspective
       id="perspective4247-1"
       inkscape:persp3d-origin="0.49999999 : 0.33333332 : 1"
       inkscape:vp_z="0.99999997 : 0.49999999 : 1"
       inkscape:vp_y="0 : 999.99998 : 0"
       inkscape:vp_x="0 : 0.49999999 : 1"
       sodipodi:type="inkscape:persp3d" />
    <inkscape:perspective
       id="perspective4355"
       inkscape:persp3d-origin="0.49999999 : 0.33333332 : 1"
       inkscape:vp_z="0.99999997 : 0.49999999 : 1"
       inkscape:vp_y="0 : 999.99998 : 0"
       inkscape:vp_x="0 : 0.49999999 : 1"
       sodipodi:type="inkscape:persp3d" />
    <inkscape:perspective
       id="perspective4355-0"
       inkscape:persp3d-origin="0.49999999 : 0.33333332 : 1"
       inkscape:vp_z="0.99999997 : 0.49999999 : 1"
       inkscape:vp_y="0 : 999.99998 : 0"
       inkscape:vp_x="0 : 0.49999999 : 1"
       sodipodi:type="inkscape:persp3d" />
    <inkscape:perspective
       id="perspective4355-6"
       inkscape:persp3d-origin="0.49999999 : 0.33333332 : 1"
       inkscape:vp_z="0.99999997 : 0.49999999 : 1"
       inkscape:vp_y="0 : 999.99998 : 0"
       inkscape:vp_x="0 : 0.49999999 : 1"
       sodipodi:type="inkscape:persp3d" />
    <inkscape:perspective
       id="perspective4355-61"
       inkscape:persp3d-origin="0.49999999 : 0.33333332 : 1"
       inkscape:vp_z="0.99999997 : 0.49999999 : 1"
       inkscape:vp_y="0 : 999.99998 : 0"
       inkscape:vp_x="0 : 0.49999999 : 1"
       sodipodi:type="inkscape:persp3d" />
  </defs>
  <sodipodi:namedview
     id="base"
     pagecolor="#ffffff"
     bordercolor="#ffffff"
     borderopacity="0.0"
     inkscape:pageopacity="0.0"
     inkscape:pageshadow="0"
     inkscape:zoom="0.36255115"
     inkscape:cx="258.16221"
     inkscape:cy="440.31655"
     inkscape:document-units="px"
     inkscape:current-layer="layer1"
     showgrid="false"
     inkscape:window-width="1338"
     inkscape:window-height="712"
     inkscape:window-x="11"
     inkscape:window-y="39"
     inkscape:window-maximized="1" />
  <metadata
     id="metadata2821">
    <rdf:RDF>
      <cc:Work
         rdf:about="">
        <dc:format>image/svg+xml</dc:format>
        <dc:type
           rdf:resource="http://purl.org/dc/dcmitype/StillImage" />
        <dc:title>Track map of Shanghai International Racing Circuit</dc:title>
        <dc:date>September 23, 2009</dc:date>
        <dc:creator>
          <cc:Agent>
            <dc:title>Will Pittenger</dc:title>
          </cc:Agent>
        </dc:creator>
        <dc:publisher>
          <cc:Agent>
            <dc:title>Will Pittenger</dc:title>
          </cc:Agent>
        </dc:publisher>
        <dc:subject>
          <rdf:Bag>
            <rdf:li>Shanghai</rdf:li>
            <rdf:li>Shanghai Internation Circuit</rdf:li>
            <rdf:li>racing</rdf:li>
            <rdf:li>Formula 1</rdf:li>
            <rdf:li>F1</rdf:li>
            <rdf:li>Open wheel racing</rdf:li>
            <rdf:li />
          </rdf:Bag>
        </dc:subject>
        <dc:description>Created in Inkscape</dc:description>
        <cc:license
           rdf:resource="http://creativecommons.org/licenses/by-sa/3.0/" />
      </cc:Work>
      <cc:License
         rdf:about="http://creativecommons.org/licenses/by-sa/3.0/">
        <cc:permits
           rdf:resource="http://creativecommons.org/ns#Reproduction" />
        <cc:permits
           rdf:resource="http://creativecommons.org/ns#Distribution" />
        <cc:requires
           rdf:resource="http://creativecommons.org/ns#Notice" />
        <cc:requires
           rdf:resource="http://creativecommons.org/ns#Attribution" />
        <cc:permits
           rdf:resource="http://creativecommons.org/ns#DerivativeWorks" />
        <cc:requires
           rdf:resource="http://creativecommons.org/ns#ShareAlike" />
      </cc:License>
    </rdf:RDF>
  </metadata>
  <g
     inkscape:label="Layer 1"
     inkscape:groupmode="layer"
     id="layer1"
     transform="translate(1298.8737,-346.65234)">
    <path
       style="fill:none"
       d="m -853.46939,684.61728 c 38.16139,-92.75986 75.45518,-186.8445 110.44898,-278.94642 4.37706,-11.52021 16.72891,-21.75786 27.61225,-27.29847 12.12686,-6.17367 26.56106,-8.56704 39.84948,-8.15816 13.90546,0.42785 29.88085,3.14734 41.73215,10.66836 9.9038,6.2851 18.91494,17.0757 23.84694,27.61225 4.27208,9.12672 5.8417,21.61849 3.7653,31.37755 -2.10728,9.90421 -8.86977,20.60372 -16.31632,27.61224 -6.77794,6.37923 -17.17826,10.48367 -25.10205,8.78571 -9.64764,-2.06735 -19.7519,-12.14329 -23.84693,-23.53316 -3.10178,-8.62723 -16.44578,-15.98154 -23.53317,-18.51275 -4.6269,-1.65247 -15.61631,2.93201 -19.76786,6.90306 -5.4709,5.23303 -10.70616,14.74792 -10.66836,21.96429 0.0435,8.30493 5.28309,19.56263 10.04082,26.98469 5.70146,8.89427 13.55208,18.89277 22.59184,24.78827 10.20513,6.65552 23.2857,12.78326 35.14285,11.60969 20.73207,-2.05197 45.17196,-6.14686 67.77551,-9.41327 49.774,-7.19277 99.49621,-14.30811 149.35714,-20.70918 12.05743,-1.54791 26.20746,-2.70592 37.96684,-1e-5 54.58925,12.56138 105.77827,26.14919 159.39796,41.41837 9.55378,2.72061 21.14246,5.26609 27.92602,11.29592 4.51236,4.01099 4.84068,12.67551 3.13775,17.57143 -1.64401,4.72653 -6.64162,7.72341 -12.55102,10.04082 -15.42733,6.04993 -31.44261,11.76983 -47.69387,15.06122 -16.79976,3.40248 -34.60026,3.30772 -51.77297,2.82398 -42.23545,-1.18973 -84.15896,-5.4448 -126.45152,-7.84438 -16.69723,-0.94736 -33.87182,-2.54529 -50.20408,0 -15.88202,2.47512 -31.88897,9.0391 -45.18368,17.25765 -9.7155,6.00594 -18.22268,15.13699 -23.84694,25.41581 -6.50839,11.89465 -10.97375,25.55559 -13.80612,38.90817 -3.02478,14.25966 -2.8164,29.9556 -0.31378,43.92857 2.51779,14.05764 8.09241,27.33202 15.37501,40.16326 10.28883,18.12794 23.70869,34.55705 33.88775,52.71429 5.30053,9.45501 11.17049,19.66986 12.55102,30.12245 1.54804,11.72088 0.99874,25.83419 -3.76531,36.39796 -4.8584,10.77297 -15.09865,20.68682 -25.10204,27.61224 -11.75171,8.1358 -26.1957,16.90631 -40.16326,17.57143 -21.1753,1.00835 -43.3895,-9.63424 -65.26531,-12.55102 -9.50174,-1.2669 -19.84449,-1.19238 -26.98469,2.82398 -6.24755,3.51425 -10.01906,11.73019 -9.41326,19.45408 1.06767,13.61285 7.54056,27.76501 12.55101,41.73215 4.23293,11.7997 6.7575,23.51168 13.80612,31.06377 4.66566,4.99888 13.64663,6.63688 21.33674,6.58928 18.28428,-0.1132 35.87658,-0.5568 54.28316,0.3138 105.43015,4.9865 212.42876,10.2764 317.54083,13.8061 7.00648,0.2352 13.01766,-4.6145 16.00254,-10.3546 2.45389,-4.719 -1.52466,-11.31348 -2.82398,-16.94387 -2.46599,-10.68594 -11.19448,-22.69356 -8.47194,-32.0051 4.26138,-14.57461 11.56882,-19.17883 21.65052,-21.02296 10.67759,-1.95313 24.52827,-2.26143 36.08418,0.62755 13.54613,3.38653 26.83884,9.79962 37.33928,18.51276 9.16282,7.60319 14.91638,15.56091 18.51276,26.98469 3.51587,11.16805 4.31516,24.52973 1.88265,36.08413 -2.5879,12.2925 -10.32153,24.067 -17.57142,34.5154 -6.9746,10.0516 -15.10627,19.6241 -25.41583,26.0433 -11.86391,7.387 -25.82223,13.4475 -39.84948,15.0613 -33.24826,3.825 -67.14632,1.419 -101.03572,1.2551 -312.10041,-1.5096 -624.17497,-0.1149 -935.6786,-5.0205 -7.2923,-0.1148 -13.9054,-3.1034 -16.0025,-7.5306 -1.6682,-3.5218 5.7168,-12.7733 10.6683,-15.375 19.7322,-10.3677 39.6036,-18.2435 62.1276,-21.6504 27.2617,-4.1237 52.9652,-2.0313 80.9541,-3.4516 46.2393,-2.3463 89.7781,-3.7843 135.551,-5.9617 6.6515,-0.3164 17.53961,-2.8771 20.39541,-9.0996 3.87956,-8.4531 5.45356,-18.4735 8.78572,-27.6122 38.92294,-106.74903 73.48249,-213.3727 116.72448,-318.48212 z"
       id="path3612"
       sodipodi:nodetypes="csssssssssssssssssssssssssssssssssssssssssssssssssssssssssssssssss"
       inkscape:connector-curvature="0" />
    <path
       inkscape:connector-curvature="0"
       sodipodi:nodetypes="cssssssss"
       id="use4032"
       d="m -999.77773,1044.7985 c 24.22669,-0.9318 49.30935,-3.6597 72.64086,-7.3451 4.74223,-0.7491 10.53375,-2.8152 13.04514,-6.5225 4.01118,-5.9213 5.47383,-14.6992 6.52257,-22.3631 2.98904,-21.843 4.15353,-44.07614 5.59078,-66.15753 1.97934,-30.40978 -2.22229,-61.92481 4.65898,-91.31599 11.44405,-48.87967 33.10177,-95.8237 50.31697,-143.49656 23.16262,-64.14265 49.13812,-127.3913 70.81649,-191.94995 6.58611,-19.61358 9.53983,-35.49662 17.63784,-55.68553"
       style="fill:none;stroke:#a49c9c;stroke-width:5;stroke-miterlimit:4;stroke-dasharray:none;stroke-opacity:1" />
    <use
       x="0"
       y="0"
       xlink:href="#path3612"
       id="use4026"
       style="stroke:#000000;stroke-width:15;stroke-miterlimit:4;stroke-dasharray:none;stroke-opacity:1"
       width="744.09448"
       height="1052.3622" />
    <g
       style="display:inline"
       transform="matrix(-0.42290998,-1.2172354,1.2172354,-0.42290998,-1256.025,2791.3951)"
       id="g4801"
       clip-path="url(#clipPath9716)">
      <path
         clip-path="url(#clipPath3494)"
         transform="matrix(-0.358939,0.3679125,-1.1151124,-1.0879142,3617.8586,1699.8985)"
         d="m 1695.937,1398.5206 -24.4812,0 12.2406,-21.2013 z"
         inkscape:randomized="0"
         inkscape:rounded="0"
         inkscape:flatsided="true"
         sodipodi:arg2="1.5707963"
         sodipodi:arg1="0.52359878"
         sodipodi:r2="7.0671172"
         sodipodi:r1="14.134234"
         sodipodi:cy="1391.4535"
         sodipodi:cx="1683.6964"
         sodipodi:sides="3"
         id="path3463"
         style="display:inline;fill:#ff0000;fill-opacity:1;stroke:#ffffff;stroke-width:0.867217;stroke-linecap:round;stroke-linejoin:miter;stroke-miterlimit:4;stroke-dasharray:none;stroke-dashoffset:0;stroke-opacity:1"
         sodipodi:type="star" />
      <rect
         clip-path="url(#clipPath3490)"
         ry="0"
         transform="rotate(-135.91755)"
         y="376.01733"
         x="-1620.8837"
         height="53.588943"
         width="13.041035"
         id="rect3457"
         style="display:inline;fill:url(#pattern4264);fill-opacity:1;stroke:#000000;stroke-width:0.77603012;stroke-linecap:round;stroke-linejoin:round;stroke-miterlimit:4;stroke-dasharray:none;stroke-dashoffset:0;stroke-opacity:1" />
      <rect
         style="fill:url(#pattern4256);stroke:none"
         width="0"
         height="0"
         x="1593.7246"
         y="910.57043"
         id="rect4262" />
    </g>
  </g>
</svg>
