<?xml version="1.0" encoding="UTF-8" standalone="no"?>
<!-- Created with Inkscape (http://www.inkscape.org/) -->

<svg
   xmlns:dc="http://purl.org/dc/elements/1.1/"
   xmlns:cc="http://creativecommons.org/ns#"
   xmlns:rdf="http://www.w3.org/1999/02/22-rdf-syntax-ns#"
   xmlns:svg="http://www.w3.org/2000/svg"
   xmlns="http://www.w3.org/2000/svg"
   xmlns:xlink="http://www.w3.org/1999/xlink"
   xmlns:sodipodi="http://sodipodi.sourceforge.net/DTD/sodipodi-0.dtd"
   xmlns:inkscape="http://www.inkscape.org/namespaces/inkscape"
   width="1357.5273"
   height="1048.9662"
   id="svg2"
   version="1.1"
   inkscape:version="0.92.4 (unknown)"
   sodipodi:docname="Suzuka_circuit_map--2005.svg"
   inkscape:export-filename="E:\Images\Maps\Race Tracks\Asia\Japan\Suzuka circuit map-2005.png"
   inkscape:export-xdpi="90"
   inkscape:export-ydpi="90"
   viewBox="0 0 1272.6819 983.40576">
  <title
     id="title4362">2005 Track map for Suzuka in Japan</title>
  <defs
     id="defs4">
    <inkscape:path-effect
       effect="knot"
       id="path-effect4364"
       crossing_points_vector="346.59613 | 422.83373 | 0 | 0 | 0 | 1 | 55.285257 | 94.701299 | -1"
       is_visible="true"
       interruption_width="16"
       prop_to_stroke_width="true"
       add_stroke_width="true"
       add_other_stroke_width="true"
       switcher_size="30" />
    <pattern
       inkscape:collect="always"
       xlink:href="#pattern4256"
       id="pattern4264"
       patternTransform="matrix(0.77603066,5.5866918e-4,-5.5866918e-4,0.77603066,-1645.8445,376.07578)" />
    <pattern
       patternUnits="userSpaceOnUse"
       width="10.793857"
       height="10.773841"
       patternTransform="matrix(-0.5630234,-0.534067,0.534067,-0.5630234,1593.7246,910.57043)"
       id="pattern4256">
      <g
         id="g4248"
         transform="matrix(0.5878912,6.0987118e-3,-6.0987118e-3,0.5878912,-595.3809,-720.7077)">
        <rect
           style="opacity:1;fill:black;fill-opacity:1;stroke:none;stroke-width:0.5;stroke-linecap:round;stroke-linejoin:round;stroke-miterlimit:4;stroke-dasharray:none;stroke-dashoffset:0;stroke-opacity:1"
           id="rect4250"
           width="18.172573"
           height="18.095789"
           x="1025.5348"
           y="1215.2814" />
        <rect
           style="opacity:1;fill:white;fill-opacity:1;stroke:none;stroke-width:0.5;stroke-linecap:round;stroke-linejoin:round;stroke-miterlimit:4;stroke-dasharray:none;stroke-dashoffset:0;stroke-opacity:1"
           id="rect4252"
           width="9.0746527"
           height="9.0746527"
           x="1025.5348"
           y="1215.2814" />
        <rect
           style="opacity:1;fill:white;fill-opacity:1;stroke:none;stroke-width:0.5;stroke-linecap:round;stroke-linejoin:round;stroke-miterlimit:4;stroke-dasharray:none;stroke-dashoffset:0;stroke-opacity:1"
           id="rect4254"
           width="9.0746527"
           height="9.0746527"
           x="1034.6412"
           y="1224.3444" />
      </g>
    </pattern>
    <pattern
       inkscape:collect="always"
       xlink:href="#pattern4256"
       id="pattern5622"
       patternTransform="matrix(0.6042594,0.48692247,0.48692247,-0.6042594,1226.9041,1561.3877)" />
    <inkscape:perspective
       id="perspective4225"
       inkscape:persp3d-origin="0.50000001 : 0.33333331 : 1"
       inkscape:vp_z="1 : 0.49999998 : 1"
       inkscape:vp_y="0 : 999.99996 : 0"
       inkscape:vp_x="0 : 0.49999998 : 1"
       sodipodi:type="inkscape:persp3d" />
    <inkscape:perspective
       id="perspective4283"
       inkscape:persp3d-origin="0.50000001 : 0.33333331 : 1"
       inkscape:vp_z="1 : 0.49999998 : 1"
       inkscape:vp_y="0 : 999.99996 : 0"
       inkscape:vp_x="0 : 0.49999998 : 1"
       sodipodi:type="inkscape:persp3d" />
    <inkscape:perspective
       id="perspective4348"
       inkscape:persp3d-origin="0.50000001 : 0.33333331 : 1"
       inkscape:vp_z="1 : 0.49999998 : 1"
       inkscape:vp_y="0 : 999.99996 : 0"
       inkscape:vp_x="0 : 0.49999998 : 1"
       sodipodi:type="inkscape:persp3d" />
    <inkscape:perspective
       id="perspective4579"
       inkscape:persp3d-origin="0.50000001 : 0.33333331 : 1"
       inkscape:vp_z="1 : 0.49999998 : 1"
       inkscape:vp_y="0 : 999.99996 : 0"
       inkscape:vp_x="0 : 0.49999998 : 1"
       sodipodi:type="inkscape:persp3d" />
    <inkscape:perspective
       id="perspective4622"
       inkscape:persp3d-origin="0.50000001 : 0.33333331 : 1"
       inkscape:vp_z="1 : 0.49999998 : 1"
       inkscape:vp_y="0 : 999.99996 : 0"
       inkscape:vp_x="0 : 0.49999998 : 1"
       sodipodi:type="inkscape:persp3d" />
    <inkscape:perspective
       id="perspective4622-4"
       inkscape:persp3d-origin="0.50000001 : 0.33333331 : 1"
       inkscape:vp_z="1 : 0.49999998 : 1"
       inkscape:vp_y="0 : 999.99996 : 0"
       inkscape:vp_x="0 : 0.49999998 : 1"
       sodipodi:type="inkscape:persp3d" />
    <inkscape:perspective
       id="perspective4622-5"
       inkscape:persp3d-origin="0.50000001 : 0.33333331 : 1"
       inkscape:vp_z="1 : 0.49999998 : 1"
       inkscape:vp_y="0 : 999.99996 : 0"
       inkscape:vp_x="0 : 0.49999998 : 1"
       sodipodi:type="inkscape:persp3d" />
    <inkscape:perspective
       id="perspective4622-1"
       inkscape:persp3d-origin="0.50000001 : 0.33333331 : 1"
       inkscape:vp_z="1 : 0.49999998 : 1"
       inkscape:vp_y="0 : 999.99996 : 0"
       inkscape:vp_x="0 : 0.49999998 : 1"
       sodipodi:type="inkscape:persp3d" />
    <inkscape:perspective
       id="perspective4622-2"
       inkscape:persp3d-origin="0.50000001 : 0.33333331 : 1"
       inkscape:vp_z="1 : 0.49999998 : 1"
       inkscape:vp_y="0 : 999.99996 : 0"
       inkscape:vp_x="0 : 0.49999998 : 1"
       sodipodi:type="inkscape:persp3d" />
    <inkscape:perspective
       id="perspective4622-6"
       inkscape:persp3d-origin="0.50000001 : 0.33333331 : 1"
       inkscape:vp_z="1 : 0.49999998 : 1"
       inkscape:vp_y="0 : 999.99996 : 0"
       inkscape:vp_x="0 : 0.49999998 : 1"
       sodipodi:type="inkscape:persp3d" />
    <inkscape:perspective
       id="perspective4622-18"
       inkscape:persp3d-origin="0.50000001 : 0.33333331 : 1"
       inkscape:vp_z="1 : 0.49999998 : 1"
       inkscape:vp_y="0 : 999.99996 : 0"
       inkscape:vp_x="0 : 0.49999998 : 1"
       sodipodi:type="inkscape:persp3d" />
    <inkscape:perspective
       id="perspective4622-43"
       inkscape:persp3d-origin="0.50000001 : 0.33333331 : 1"
       inkscape:vp_z="1 : 0.49999998 : 1"
       inkscape:vp_y="0 : 999.99996 : 0"
       inkscape:vp_x="0 : 0.49999998 : 1"
       sodipodi:type="inkscape:persp3d" />
    <inkscape:perspective
       id="perspective4622-11"
       inkscape:persp3d-origin="0.50000001 : 0.33333331 : 1"
       inkscape:vp_z="1 : 0.49999998 : 1"
       inkscape:vp_y="0 : 999.99996 : 0"
       inkscape:vp_x="0 : 0.49999998 : 1"
       sodipodi:type="inkscape:persp3d" />
    <inkscape:perspective
       id="perspective4622-7"
       inkscape:persp3d-origin="0.50000001 : 0.33333331 : 1"
       inkscape:vp_z="1 : 0.49999998 : 1"
       inkscape:vp_y="0 : 999.99996 : 0"
       inkscape:vp_x="0 : 0.49999998 : 1"
       sodipodi:type="inkscape:persp3d" />
    <inkscape:perspective
       id="perspective4622-65"
       inkscape:persp3d-origin="0.50000001 : 0.33333331 : 1"
       inkscape:vp_z="1 : 0.49999998 : 1"
       inkscape:vp_y="0 : 999.99996 : 0"
       inkscape:vp_x="0 : 0.49999998 : 1"
       sodipodi:type="inkscape:persp3d" />
    <inkscape:perspective
       id="perspective4622-24"
       inkscape:persp3d-origin="0.50000001 : 0.33333331 : 1"
       inkscape:vp_z="1 : 0.49999998 : 1"
       inkscape:vp_y="0 : 999.99996 : 0"
       inkscape:vp_x="0 : 0.49999998 : 1"
       sodipodi:type="inkscape:persp3d" />
    <inkscape:perspective
       id="perspective4818"
       inkscape:persp3d-origin="0.50000001 : 0.33333331 : 1"
       inkscape:vp_z="1 : 0.49999998 : 1"
       inkscape:vp_y="0 : 999.99996 : 0"
       inkscape:vp_x="0 : 0.49999998 : 1"
       sodipodi:type="inkscape:persp3d" />
    <inkscape:perspective
       id="perspective4818-3"
       inkscape:persp3d-origin="0.50000001 : 0.33333331 : 1"
       inkscape:vp_z="1 : 0.49999998 : 1"
       inkscape:vp_y="0 : 999.99996 : 0"
       inkscape:vp_x="0 : 0.49999998 : 1"
       sodipodi:type="inkscape:persp3d" />
    <inkscape:perspective
       id="perspective4818-6"
       inkscape:persp3d-origin="0.50000001 : 0.33333331 : 1"
       inkscape:vp_z="1 : 0.49999998 : 1"
       inkscape:vp_y="0 : 999.99996 : 0"
       inkscape:vp_x="0 : 0.49999998 : 1"
       sodipodi:type="inkscape:persp3d" />
    <inkscape:perspective
       id="perspective4818-37"
       inkscape:persp3d-origin="0.50000001 : 0.33333331 : 1"
       inkscape:vp_z="1 : 0.49999998 : 1"
       inkscape:vp_y="0 : 999.99996 : 0"
       inkscape:vp_x="0 : 0.49999998 : 1"
       sodipodi:type="inkscape:persp3d" />
    <inkscape:perspective
       id="perspective4818-35"
       inkscape:persp3d-origin="0.50000001 : 0.33333331 : 1"
       inkscape:vp_z="1 : 0.49999998 : 1"
       inkscape:vp_y="0 : 999.99996 : 0"
       inkscape:vp_x="0 : 0.49999998 : 1"
       sodipodi:type="inkscape:persp3d" />
    <inkscape:perspective
       id="perspective4818-63"
       inkscape:persp3d-origin="0.50000001 : 0.33333331 : 1"
       inkscape:vp_z="1 : 0.49999998 : 1"
       inkscape:vp_y="0 : 999.99996 : 0"
       inkscape:vp_x="0 : 0.49999998 : 1"
       sodipodi:type="inkscape:persp3d" />
    <inkscape:perspective
       id="perspective4818-0"
       inkscape:persp3d-origin="0.50000001 : 0.33333331 : 1"
       inkscape:vp_z="1 : 0.49999998 : 1"
       inkscape:vp_y="0 : 999.99996 : 0"
       inkscape:vp_x="0 : 0.49999998 : 1"
       sodipodi:type="inkscape:persp3d" />
    <inkscape:perspective
       id="perspective4818-65"
       inkscape:persp3d-origin="0.50000001 : 0.33333331 : 1"
       inkscape:vp_z="1 : 0.49999998 : 1"
       inkscape:vp_y="0 : 999.99996 : 0"
       inkscape:vp_x="0 : 0.49999998 : 1"
       sodipodi:type="inkscape:persp3d" />
    <inkscape:perspective
       id="perspective4954"
       inkscape:persp3d-origin="0.50000001 : 0.33333331 : 1"
       inkscape:vp_z="1 : 0.49999998 : 1"
       inkscape:vp_y="0 : 999.99996 : 0"
       inkscape:vp_x="0 : 0.49999998 : 1"
       sodipodi:type="inkscape:persp3d" />
    <inkscape:perspective
       id="perspective4976"
       inkscape:persp3d-origin="0.50000001 : 0.33333331 : 1"
       inkscape:vp_z="1 : 0.49999998 : 1"
       inkscape:vp_y="0 : 999.99996 : 0"
       inkscape:vp_x="0 : 0.49999998 : 1"
       sodipodi:type="inkscape:persp3d" />
    <inkscape:perspective
       id="perspective4998"
       inkscape:persp3d-origin="0.50000001 : 0.33333331 : 1"
       inkscape:vp_z="1 : 0.49999998 : 1"
       inkscape:vp_y="0 : 999.99996 : 0"
       inkscape:vp_x="0 : 0.49999998 : 1"
       sodipodi:type="inkscape:persp3d" />
  </defs>
  <sodipodi:namedview
     id="base"
     pagecolor="#ffffff"
     bordercolor="#666666"
     borderopacity="1.0"
     inkscape:pageopacity="0.0"
     inkscape:pageshadow="2"
     inkscape:zoom="0.39810627"
     inkscape:cx="233.26506"
     inkscape:cy="745.22827"
     inkscape:document-units="px"
     inkscape:current-layer="layer1"
     showgrid="false"
     showborder="false"
     inkscape:showpageshadow="false"
     inkscape:window-width="1338"
     inkscape:window-height="712"
     inkscape:window-x="11"
     inkscape:window-y="39"
     inkscape:window-maximized="1" />
  <metadata
     id="metadata7">
    <rdf:RDF>
      <cc:Work
         rdf:about="">
        <dc:format>image/svg+xml</dc:format>
        <dc:type
           rdf:resource="http://purl.org/dc/dcmitype/StillImage" />
        <dc:title>2005 Track map for Suzuka in Japan</dc:title>
        <dc:date>January 14, 2009</dc:date>
        <dc:creator>
          <cc:Agent>
            <dc:title>Will Pittenger</dc:title>
          </cc:Agent>
        </dc:creator>
        <dc:publisher>
          <cc:Agent>
            <dc:title>Will Pittenger</dc:title>
          </cc:Agent>
        </dc:publisher>
        <dc:subject>
          <rdf:Bag>
            <rdf:li>Suzuka</rdf:li>
            <rdf:li>Formula 1</rdf:li>
            <rdf:li>F1</rdf:li>
            <rdf:li>open wheel racing</rdf:li>
            <rdf:li>racing</rdf:li>
            <rdf:li>First Turn</rdf:li>
            <rdf:li>'S' Curves</rdf:li>
            <rdf:li>Dunlap Curve</rdf:li>
            <rdf:li>Degner Curve</rdf:li>
            <rdf:li>Hairpin</rdf:li>
            <rdf:li>Spoon Curve</rdf:li>
            <rdf:li>Honda</rdf:li>
            <rdf:li>2005</rdf:li>
          </rdf:Bag>
        </dc:subject>
        <dc:description>Created in Inkscape.  Shows the track as it was in 2005.</dc:description>
        <cc:license
           rdf:resource="http://creativecommons.org/licenses/by-sa/3.0/" />
      </cc:Work>
      <cc:License
         rdf:about="http://creativecommons.org/licenses/by-sa/3.0/">
        <cc:permits
           rdf:resource="http://creativecommons.org/ns#Reproduction" />
        <cc:permits
           rdf:resource="http://creativecommons.org/ns#Distribution" />
        <cc:requires
           rdf:resource="http://creativecommons.org/ns#Notice" />
        <cc:requires
           rdf:resource="http://creativecommons.org/ns#Attribution" />
        <cc:permits
           rdf:resource="http://creativecommons.org/ns#DerivativeWorks" />
        <cc:requires
           rdf:resource="http://creativecommons.org/ns#ShareAlike" />
      </cc:License>
    </rdf:RDF>
  </metadata>
  <g
     inkscape:label="Layer 1"
     inkscape:groupmode="layer"
     id="layer1"
     transform="translate(371.29038,-31.096124)">
    <path
       inkscape:connector-curvature="0"
       sodipodi:nodetypes="csssssssssssss"
       id="use3876"
       d="m 300.06687,789.19312 c -0.62772,4.62939 -0.84115,9.41121 -2.92279,13.41738 -3.46317,6.66497 -5.79491,12.90954 -10.59267,18.75296 -3.36252,4.09538 -7.40849,7.73628 -11.61271,10.98499 -7.30387,5.6439 -14.91637,11.08024 -22.91156,15.69285 -8.32538,4.8031 -17.28759,8.54251 -26.05013,12.55428 -8.60421,3.93928 -16.85047,9.49559 -26.05013,11.29885 -22.29065,4.36926 -45.59004,5.12857 -68.42081,7.21871 -6.88102,0.62995 -13.93814,-0.006 -20.71456,0.94157 -2.95315,0.41281 -5.52055,2.59099 -8.47414,3.13857 -15.668592,2.90485 -31.583059,4.89225 -47.392402,7.21871 -46.7528109,6.88001 -93.753046,12.48226 -140.294061,20.4007 -13.719521,2.33422 -26.931127,7.16147 -40.487547,10.35728 -13.95837,3.29057 -28.44935,7.65254 -42.46829,9.73597"
       style="fill:none;stroke:#999999;stroke-width:5;stroke-linecap:butt;stroke-linejoin:miter;stroke-miterlimit:4;stroke-dasharray:none;stroke-opacity:1" />
    <path
       inkscape:connector-curvature="0"
       inkscape:original-d="m -28.87484,911.44041 c -45.786359,6.76483 -91.38624,14.77857 -137.15549,21.65613 -32.90422,4.94438 -65.85991,10.02512 -98.86494,13.8097 -6.22709,0.71404 -12.60683,0.29749 -18.83142,-0.31385 -5.49273,-0.53946 -11.13885,-1.32986 -16.32056,-3.13857 -5.9079,-2.06219 -11.85737,-4.83151 -16.94828,-8.47414 -7.04489,-5.04074 -13.71207,-11.06988 -19.45913,-17.57599 -5.34255,-6.04817 -10.35741,-12.91669 -13.80971,-20.08685 -1.98789,-4.12869 -2.51085,-9.1976 -2.51085,-13.8097 0,-5.22208 0.56161,-10.92803 2.51085,-15.69285 1.81704,-4.44165 5.35878,-8.44458 8.788,-11.92656 3.37101,-3.42287 7.36892,-6.58553 11.6127,-8.788 4.02112,-2.08691 8.66463,-3.4065 13.182,-4.08014 7.4092,-1.10488 15.05871,-0.98544 22.5977,-1.25543 30.4377,-1.09006 61.05671,-0.89222 91.33237,-2.82471 4.14399,-0.26451 8.257,-1.88563 11.92657,-3.76628 4.69995,-2.40873 9.37711,-5.45775 13.18199,-9.10186 3.62307,-3.46998 6.48174,-7.90369 9.10185,-12.24042 3.44779,-5.70669 5.30414,-12.49954 9.10185,-17.88984 2.68867,-3.81617 6.42891,-7.20765 10.35728,-9.72957 4.54577,-2.91827 9.84729,-5.22724 15.06514,-6.591 3.98862,-1.04248 8.38034,-0.77503 12.55428,-0.62771 4.71868,0.16654 9.52954,0.46671 14.12356,1.56928 13.714299,3.29143 27.094234,8.22276 40.801404,11.61271 5.751961,1.42253 11.747408,2.93468 17.57599,2.82471 5.261031,-0.0993 10.753541,-1.53718 15.692848,-3.45242 5.313354,-2.06028 10.522722,-5.03821 15.065134,-8.47414 3.617869,-2.73659 6.751829,-6.3257 9.4157091,-10.04342 6.8564477,-9.56889 12.139597,-20.38019 19.1452749,-29.81641 3.246983,-4.37349 7.241351,-8.42419 11.612707,-11.61271 4.521257,-3.29786 9.835697,-5.7659 15.065134,-7.84643 4.500129,-1.79037 9.329958,-3.08148 14.123564,-3.76628 5.459055,-0.77986 11.230826,-1.35945 16.634419,-0.62771 4.63983,0.62831 9.248651,2.64324 13.495849,4.70785 3.285369,1.59705 6.458044,3.74828 9.101852,6.27714 4.574901,4.37599 8.532692,9.49133 12.554275,14.43742 5.08027,6.24815 9.5771,12.9803 14.75128,19.14528 4.66001,5.55235 9.03983,11.75005 14.75128,16.0067 5.37816,4.00825 12.11653,6.59157 18.51756,8.788 4.2701,1.46523 8.97179,2.05561 13.49585,2.19699 5.51937,0.17248 11.37929,0.27733 16.63442,-1.25542 7.29915,-2.12892 14.37645,-5.85685 21.02841,-9.72957 8.62241,-5.0199 17.10624,-10.60396 24.7947,-16.94828 7.27206,-6.00072 13.88991,-12.96956 20.08685,-20.08684 4.36958,-5.01852 8.17878,-10.61281 11.61271,-16.32056 4.30787,-7.16039 8.58488,-14.53963 11.6127,-22.28385 2.41237,-6.17011 3.4702,-12.90984 4.70786,-19.45913 1.2732,-6.73732 2.31478,-13.56758 2.82471,-20.4007 0.53626,-7.18583 0.80239,-14.47472 0.31386,-21.65613 -0.55766,-8.19758 -1.43055,-16.53116 -3.45243,-24.48084 -2.58135,-10.1494 -6.75044,-19.93311 -10.35728,-29.81642 -9.67977,-26.5241 -21.22782,-52.7428 -29.50255,-79.40581 -1.14098,-3.67649 -0.23522,-8.0375 1.25542,-11.6127 11.90059,-28.54283 24.90784,-57.2885 38.91827,-84.74138 1.47318,-2.88663 4.66305,-5.0018 7.53256,-6.27714 2.77991,-1.23552 6.41341,-2.21541 9.41571,-1.25543 63.74462,20.38229 128.45146,41.37238 190.82504,65.28225 6.67495,2.55873 11.74735,8.6103 16.32056,14.12356 14.2582,17.18906 25.61519,37.5607 40.17369,53.9834 2.59901,2.93181 7.5547,4.02341 11.29885,4.08014 3.16071,0.0479 7.16722,-1.56776 9.41571,-3.76629 2.45936,-2.40471 4.27349,-6.56855 4.70785,-10.04342 0.40259,-3.22075 -0.70247,-6.99901 -2.197,-10.04342 -4.1549,-8.46368 -10.0253,-16.21039 -14.75127,-24.48084 -6.99136,-12.23487 -13.96329,-24.50513 -20.40071,-37.03512 -5.2799,-10.27695 -10.95415,-20.53678 -14.75127,-31.3857 -3.52621,-10.07488 -5.99654,-20.81396 -7.21871,-31.3857 -0.87021,-7.52735 -0.0783,-15.37604 0.94157,-22.91156 0.8633,-6.37881 2.50383,-12.77036 4.70785,-18.83141 3.65465,-10.05028 7.59638,-20.21652 12.86814,-29.50256 6.13171,-10.80081 13.73015,-20.89965 21.34227,-30.75798 5.15139,-6.67147 10.86898,-12.98898 16.94828,-18.83142 10.03202,-9.64117 20.36719,-19.13949 31.38569,-27.61941 10.32378,-7.94526 21.18093,-15.52625 32.64113,-21.65613 11.03288,-5.90131 22.88502,-10.77714 34.83812,-14.43742 9.91227,-3.03534 20.42821,-4.51429 30.75798,-5.64943 8.71089,-0.95724 17.64297,-1.57163 26.36399,-0.62771 35.74205,3.86855 71.42677,11.94246 107.02522,15.06513 6.14452,0.53899 12.77137,-1.38845 18.2037,-4.08014 6.18038,-3.06235 12.21296,-7.81307 16.63442,-13.18199 5.8312,-7.08074 10.53859,-15.63372 14.12357,-24.16698 3.84297,-9.14735 6.81627,-19.10023 8.16028,-28.87484 0.95761,-6.96443 1.01054,-14.83993 -1.25543,-21.34228 -2.5465,-7.30735 -7.70465,-14.6095 -13.18199,-20.08684 -3.51989,-3.51989 -8.94717,-5.4124 -13.80971,-6.90486 -5.70398,-1.750726 -11.93621,-3.041996 -17.88985,-2.824709 -8.37916,0.30581 -16.96956,2.062731 -25.10855,4.393999 -12.68019,3.63202 -24.99345,8.75133 -37.34898,13.49585 -13.79922,5.2989 -27.58708,10.68856 -41.11526,16.63442 -12.41733,5.45761 -24.71498,11.26611 -36.72127,17.57599 -16.65931,8.75526 -33.46601,17.4459 -49.27554,27.61941 -18.81935,12.11034 -36.87615,25.54647 -54.61111,39.23212 -18.46321,14.24762 -35.93445,29.77825 -53.9834,44.56769 -20.76469,17.01474 -41.82698,33.6699 -62.45753,50.84483 -21.21705,17.66319 -42.27235,35.53139 -63.08525,53.66954 -31.28736,27.26649 -63.05016,54.26436 -93.21552,82.54438 -3.31272,3.10567 -5.92092,7.29505 -7.21871,11.6127 -4.1424,13.78143 -7.26331,28.31049 -9.10185,42.68455 -1.61388,12.61764 -2.6735,25.66298 -1.25543,38.29055 2.97593,26.49993 8.79863,52.90789 14.43742,79.09195 4.92773,22.88224 13.36877,45.15661 17.26213,68.10696 2.06992,12.20163 1.5234,25.25734 0.62772,37.34898 -0.15051,2.03192 -1.8921,4.26796 -3.76629,5.02171 -7.75075,3.11715 -17.63824,3.08453 -25.10855,6.591 -2.78235,1.306 -5.52681,4.8423 -5.64943,7.84642 -0.29586,7.24854 2.27126,15.19919 2.894,22.91156 0.73731,9.13129 0.94222,18.6285 -0.31386,27.61941 -0.73168,5.23728 -1.9704,10.17563 -4.14942,15.06514 -2.11036,4.73544 -4.37031,9.49117 -7.21871,13.80971 -3.63798,5.51564 -7.56443,11.07121 -12.24043,15.69284 -4.32123,4.27099 -9.47717,7.89216 -14.75127,10.985 -11.67417,6.84596 -23.73445,13.33129 -36.09355,18.83141 -7.62313,3.39249 -15.78725,5.66192 -23.85313,7.84643 -6.99925,1.89563 -14.1575,3.33713 -21.34228,4.394 -70.33789,10.3466 -140.885016,19.42373 -211.22573,29.81641 z"
       inkscape:path-effect="#path-effect4364"
       sodipodi:nodetypes="cssssssssssssssssssssssssssssssssssssssssssssssssssssssssssssssssssssssssssssssssssssssssssssssssssssssssssssssssss"
       id="use3628"
       d="m 356.47746,426.07244 c 42.46359,13.96485 84.86234,28.5396 126.23455,44.39894 6.67495,2.55873 11.74735,8.6103 16.32056,14.12356 14.2582,17.18906 25.61519,37.5607 40.17369,53.9834 2.59901,2.93181 7.5547,4.02341 11.29885,4.08014 3.16071,0.0479 7.16722,-1.56776 9.41571,-3.76629 2.45936,-2.40471 4.27349,-6.56855 4.70785,-10.04342 0.40259,-3.22075 -0.70247,-6.99901 -2.197,-10.04342 -4.1549,-8.46368 -10.0253,-16.21039 -14.75127,-24.48084 -6.99136,-12.23487 -13.96329,-24.50513 -20.40071,-37.03512 -5.2799,-10.27695 -10.95415,-20.53678 -14.75127,-31.3857 -3.52621,-10.07488 -5.99654,-20.81396 -7.21871,-31.3857 -0.87021,-7.52735 -0.0783,-15.37604 0.94157,-22.91156 0.8633,-6.37881 2.50383,-12.77036 4.70785,-18.83141 3.65465,-10.05028 7.59638,-20.21652 12.86814,-29.50256 6.13171,-10.80081 13.73015,-20.89965 21.34227,-30.75798 5.15139,-6.67147 10.86898,-12.98898 16.94828,-18.83142 10.03202,-9.64117 20.36719,-19.13949 31.38569,-27.61941 10.32378,-7.94526 21.18093,-15.52625 32.64113,-21.65613 11.03288,-5.90131 22.88502,-10.77714 34.83812,-14.43742 9.91227,-3.03534 20.42821,-4.51429 30.75798,-5.64943 8.71089,-0.95724 17.64297,-1.57163 26.36399,-0.62771 35.74205,3.86855 71.42677,11.94246 107.02522,15.06513 6.14452,0.53899 12.77137,-1.38845 18.2037,-4.08014 6.18038,-3.06235 12.21296,-7.81307 16.63442,-13.18199 5.8312,-7.08074 10.53859,-15.63372 14.12357,-24.16698 3.84297,-9.14735 6.81627,-19.10023 8.16028,-28.87484 0.95761,-6.96443 1.01054,-14.83993 -1.25543,-21.34228 -2.5465,-7.30735 -7.70465,-14.6095 -13.18199,-20.08684 -3.51989,-3.51989 -8.94717,-5.4124 -13.80971,-6.90486 -5.70398,-1.750726 -11.93621,-3.041996 -17.88985,-2.824709 -8.37916,0.30581 -16.96956,2.062731 -25.10855,4.393999 -12.68019,3.63202 -24.99345,8.75133 -37.34898,13.49585 -13.79922,5.2989 -27.58708,10.68856 -41.11526,16.63442 -12.41733,5.45761 -24.71498,11.26611 -36.72127,17.57599 -16.65931,8.75526 -33.46601,17.4459 -49.27554,27.61941 -18.81935,12.11034 -36.87615,25.54647 -54.61111,39.23212 -18.46321,14.24762 -35.93445,29.77825 -53.9834,44.56769 -20.76469,17.01474 -41.82698,33.6699 -62.45753,50.84483 -21.21705,17.66319 -42.27235,35.53139 -63.08525,53.66954 -31.28736,27.26649 -63.05016,54.26436 -93.21552,82.54438 -3.31272,3.10567 -5.92092,7.29505 -7.21871,11.6127 -4.1424,13.78143 -7.26331,28.31049 -9.10185,42.68455 -1.61388,12.61764 -2.6735,25.66298 -1.25543,38.29055 2.97593,26.49993 8.79863,52.90789 14.43742,79.09195 4.92773,22.88224 13.36877,45.15661 17.26213,68.10696 2.06992,12.20163 1.5234,25.25734 0.62772,37.34898 -0.15051,2.03192 -1.8921,4.26796 -3.76629,5.02171 -7.75075,3.11715 -17.63824,3.08453 -25.10855,6.591 -2.78235,1.306 -5.52681,4.8423 -5.64943,7.84642 -0.29586,7.24854 2.27126,15.19919 2.894,22.91156 0.73731,9.13129 0.94222,18.6285 -0.31386,27.61941 -0.73168,5.23728 -1.9704,10.17563 -4.14942,15.06514 -2.11036,4.73544 -4.37031,9.49117 -7.21871,13.80971 -3.63798,5.51564 -7.56443,11.07121 -12.24043,15.69284 -4.32123,4.27099 -9.47717,7.89216 -14.75127,10.985 -11.67417,6.84596 -23.73445,13.33129 -36.09355,18.83141 -7.62313,3.39249 -15.78725,5.66192 -23.85313,7.84643 -6.99925,1.89563 -14.1575,3.33713 -21.34228,4.394 -70.33789,10.3466 -140.885016,19.42373 -211.22573,29.81641 -45.786359,6.76483 -91.38624,14.77857 -137.15549,21.65613 -32.90422,4.94438 -65.85991,10.02512 -98.86494,13.8097 -6.22709,0.71404 -12.60683,0.29749 -18.83142,-0.31385 -5.49273,-0.53946 -11.13885,-1.32986 -16.32056,-3.13857 -5.9079,-2.06219 -11.85737,-4.83151 -16.94828,-8.47414 -7.04489,-5.04074 -13.71207,-11.06988 -19.45913,-17.57599 -5.34255,-6.04817 -10.35741,-12.91669 -13.80971,-20.08685 -1.98789,-4.12869 -2.51085,-9.1976 -2.51085,-13.8097 0,-5.22208 0.56161,-10.92803 2.51085,-15.69285 1.81704,-4.44165 5.35878,-8.44458 8.788,-11.92656 3.37101,-3.42287 7.36892,-6.58553 11.6127,-8.788 4.02112,-2.08691 8.66463,-3.4065 13.182,-4.08014 7.4092,-1.10488 15.05871,-0.98544 22.5977,-1.25543 30.4377,-1.09006 61.05671,-0.89222 91.33237,-2.82471 4.14399,-0.26451 8.257,-1.88563 11.92657,-3.76628 4.69995,-2.40873 9.37711,-5.45775 13.18199,-9.10186 3.62307,-3.46998 6.48174,-7.90369 9.10185,-12.24042 3.44779,-5.70669 5.30414,-12.49954 9.10185,-17.88984 2.68867,-3.81617 6.42891,-7.20765 10.35728,-9.72957 4.54577,-2.91827 9.84729,-5.22724 15.06514,-6.591 3.98862,-1.04248 8.38034,-0.77503 12.55428,-0.62771 4.71868,0.16654 9.52954,0.46671 14.12356,1.56928 13.714299,3.29143 27.094234,8.22276 40.801404,11.61271 5.751961,1.42253 11.747408,2.93468 17.57599,2.82471 5.261031,-0.0993 10.753541,-1.53718 15.692848,-3.45242 5.313354,-2.06028 10.522722,-5.03821 15.065134,-8.47414 3.617869,-2.73659 6.751829,-6.3257 9.4157091,-10.04342 6.8564477,-9.56889 12.139597,-20.38019 19.1452749,-29.81641 3.246983,-4.37349 7.241351,-8.42419 11.612707,-11.61271 4.521257,-3.29786 9.835697,-5.7659 15.065134,-7.84643 4.500129,-1.79037 9.329958,-3.08148 14.123564,-3.76628 5.459055,-0.77986 11.230826,-1.35945 16.634419,-0.62771 4.63983,0.62831 9.248651,2.64324 13.495849,4.70785 3.285369,1.59705 6.458044,3.74828 9.101852,6.27714 4.574901,4.37599 8.532692,9.49133 12.554275,14.43742 5.08027,6.24815 9.5771,12.9803 14.75128,19.14528 4.66001,5.55235 9.03983,11.75005 14.75128,16.0067 5.37816,4.00825 12.11653,6.59157 18.51756,8.788 4.2701,1.46523 8.97179,2.05561 13.49585,2.19699 5.51937,0.17248 11.37929,0.27733 16.63442,-1.25542 7.29915,-2.12892 14.37645,-5.85685 21.02841,-9.72957 8.62241,-5.0199 17.10624,-10.60396 24.7947,-16.94828 7.27206,-6.00072 13.88991,-12.96956 20.08685,-20.08684 4.36958,-5.01852 8.17878,-10.61281 11.61271,-16.32056 4.30787,-7.16039 8.58488,-14.53963 11.6127,-22.28385 2.41237,-6.17011 3.4702,-12.90984 4.70786,-19.45913 1.2732,-6.73732 2.31478,-13.56758 2.82471,-20.4007 0.53626,-7.18583 0.80239,-14.47472 0.31386,-21.65613 -0.55766,-8.19758 -1.43055,-16.53116 -3.45243,-24.48084 -2.58135,-10.1494 -6.75044,-19.93311 -10.35728,-29.81642 -9.67977,-26.5241 -21.22782,-52.7428 -29.50255,-79.40581 -1.14098,-3.67649 -0.23522,-8.0375 1.25542,-11.6127 11.90059,-28.54283 24.90784,-57.2885 38.91827,-84.74138 1.47318,-2.88663 4.66305,-5.0018 7.53256,-6.27714 2.77991,-1.23552 6.41341,-2.21541 9.41571,-1.25543 14.8986,4.76382 29.84977,9.56083 44.81142,14.42057"
       style="fill:none;stroke:#000000;stroke-width:10;stroke-miterlimit:4;stroke-dasharray:none;stroke-opacity:1" />
    <g
       style="display:inline"
       transform="matrix(-0.78796955,1.019617,-1.019617,-0.78796955,1951.3914,89.817977)"
       id="g4801">
      <path
         clip-path="none"
         transform="matrix(-0.358939,0.3679125,-1.1151124,-1.0879142,3617.8586,1699.8985)"
         d="m 1695.937,1398.5206 -24.4812,0 12.2406,-21.2013 z"
         inkscape:randomized="0"
         inkscape:rounded="0"
         inkscape:flatsided="true"
         sodipodi:arg2="1.5707963"
         sodipodi:arg1="0.52359878"
         sodipodi:r2="7.0671172"
         sodipodi:r1="14.134234"
         sodipodi:cy="1391.4535"
         sodipodi:cx="1683.6964"
         sodipodi:sides="3"
         id="path3463"
         style="display:inline;fill:#ff0000;fill-opacity:1;stroke:#ffffff;stroke-width:0.867217;stroke-linecap:round;stroke-linejoin:miter;stroke-miterlimit:4;stroke-dasharray:none;stroke-dashoffset:0;stroke-opacity:1"
         sodipodi:type="star" />
      <rect
         clip-path="none"
         ry="0"
         transform="rotate(-135.91755)"
         y="376.01733"
         x="-1620.8837"
         height="54.697575"
         width="13.041035"
         id="rect3457"
         style="display:inline;fill:url(#pattern4264);fill-opacity:1;stroke:#000000;stroke-width:0.77603012;stroke-linecap:round;stroke-linejoin:round;stroke-miterlimit:4;stroke-dasharray:none;stroke-dashoffset:0;stroke-opacity:1" />
      <rect
         style="fill:url(#pattern5622);stroke:none"
         width="0"
         height="0"
         x="1593.7246"
         y="910.57043"
         id="rect4262"
         clip-path="none" />
    </g>
  </g>
</svg>
